<?xml version="1.0" standalone="no"?>
<!DOCTYPE svg PUBLIC "-//W3C//DTD SVG 1.1//EN" "http://www.w3.org/Graphics/SVG/1.1/DTD/svg11.dtd" >
<svg xmlns="http://www.w3.org/2000/svg" xmlns:xlink="http://www.w3.org/1999/xlink" version="1.1">
<metadata></metadata>
<defs>
<font id="ubunturegular" horiz-adv-x="1155" >
<font-face units-per-em="2048" ascent="1638" descent="-410" />
<missing-glyph horiz-adv-x="473" />
<glyph unicode="&#xd;" horiz-adv-x="473" />
<glyph horiz-adv-x="0" />
<glyph horiz-adv-x="0" />
<glyph unicode=" "  horiz-adv-x="473" />
<glyph unicode="&#x09;" horiz-adv-x="473" />
<glyph unicode="&#xa0;" horiz-adv-x="473" />
<glyph unicode="!" horiz-adv-x="565" d="M385 1034q0 -172 -12.5 -312t-30.5 -280h-119q-18 139 -30.5 279.5t-12.5 312.5v385h205v-385zM420 111q0 -55 -37 -96.5t-100 -41.5t-100.5 41t-37.5 97q0 55 37 96t101 41q63 0 100 -41t37 -96z" />
<glyph unicode="&#x22;" horiz-adv-x="856" d="M346 1556v-102q0 -100 -12 -209.5t-31 -218.5h-113q-18 109 -30.5 218.5t-12.5 211.5v100h199zM708 1556v-102q0 -100 -12 -209.5t-31 -218.5h-113q-18 109 -30.5 218.5t-12.5 211.5v100h199z" />
<glyph unicode="#" horiz-adv-x="1366" d="M582 1044h331l72 375h172l-72 -375h181v-151h-211l-70 -367h281v-151h-310l-71 -375h-172l71 375h-331l-72 -375h-172l72 375h-181v151h209l70 367h-279v151h310l71 375h172zM481 526h332l72 367h-332z" />
<glyph unicode="$" d="M537 195q158 0 221 50t63 128q0 57 -27.5 98t-73.5 71.5t-106.5 55.5t-124.5 47q-61 23 -121.5 50.5t-107.5 67.5t-76.5 96t-29.5 138q0 145 87 238.5t253 118.5v235h170v-229q90 -4 167.5 -22.5t122.5 -34.5l-39 -160q-49 18 -122.5 37.5t-184.5 19.5q-123 0 -189.5 -47 t-66.5 -133q0 -47 19.5 -80t56.5 -58.5t87 -46t112 -42.5q80 -31 151.5 -64t125.5 -79t87 -109.5t33 -153.5q0 -145 -88 -234.5t-272 -111.5v-264h-170v258q-143 4 -233.5 31.5t-135.5 52.5l51 153q61 -29 147.5 -53t213.5 -24z" />
<glyph unicode="%" horiz-adv-x="1757" d="M102 1073q0 92 25 162t69 118t103 72.5t129 24.5t129 -24.5t103.5 -72.5t69 -118t24.5 -162t-24.5 -161.5t-69 -118t-103.5 -73t-129 -24.5t-129 24.5t-103 73t-69 118t-25 161.5zM594 1073q0 111 -43 173.5t-123 62.5t-123 -62.5t-43 -173.5t43 -173t123 -62t123 62 t43 173zM1004 346q0 92 24.5 162t68.5 118t103.5 72.5t128.5 24.5q70 0 129.5 -24.5t103.5 -72.5t68.5 -118t24.5 -162t-24.5 -161.5t-68.5 -118t-103.5 -73t-129.5 -24.5t-129 24.5t-103 73t-68.5 118t-24.5 161.5zM1495 346q0 111 -43 173.5t-123 62.5t-123 -62.5 t-43 -173.5t43 -173t123 -62t123 62t43 173zM1372 1419l-801 -1419h-186l801 1419h186z" />
<glyph unicode="&#x26;" horiz-adv-x="1363" d="M94 377q0 80 24.5 142.5t66.5 112.5t97.5 88t114.5 66q-152 152 -151 314q0 82 27.5 147.5t75.5 110.5t114.5 69.5t146.5 24.5q82 0 146.5 -24.5t108.5 -65.5t66.5 -98.5t22.5 -120.5q0 -72 -23.5 -129.5t-63.5 -104.5t-91 -86t-108 -69l331 -338q70 129 91 286l157 -20 q-8 -84 -42 -183.5t-95 -197.5q72 -78 132.5 -153.5t98.5 -147.5h-200q-25 41 -61 84t-74 86q-84 -84 -195 -136t-254 -52q-133 0 -221 37.5t-142.5 96t-77 128.5t-22.5 133zM285 381q0 -37 14 -80t47 -79t85 -59.5t130 -23.5q100 0 185 37t151 105l-399 403 q-37 -18 -75 -43t-68.5 -60.5t-50 -84.5t-19.5 -115zM782 1137q0 70 -46 118t-126 48q-90 0 -138 -54.5t-48 -134.5q0 -133 139 -260q45 23 85 49.5t70 61t47 77t17 95.5z" />
<glyph unicode="'" horiz-adv-x="493" d="M346 1556v-102q0 -100 -12 -209.5t-31 -218.5h-113q-18 109 -30.5 218.5t-12.5 211.5v100h199z" />
<glyph unicode="(" horiz-adv-x="663" d="M350 612q0 -262 76 -485t223 -414l-135 -92q-160 195 -257 448t-97 543q0 291 97 544t257 448l135 -93q-147 -190 -223 -413.5t-76 -485.5z" />
<glyph unicode=")" horiz-adv-x="663" d="M313 612q0 262 -75.5 485.5t-223.5 413.5l136 93q160 -195 257 -448t97 -544t-97.5 -543.5t-256.5 -447.5l-136 92q147 190 223 413.5t76 485.5z" />
<glyph unicode="*" horiz-adv-x="983" d="M584 1403q0 -86 -15.5 -165t-31.5 -163q74 41 145.5 80t155.5 68l12 4l57 -172l-16 -6q-82 -31 -164 -40.5t-168 -15.5q68 -57 127 -111.5t111 -125.5l10 -15l-150 -104l-8 12q-49 74 -85 146.5t-72 150.5q-37 -78 -73 -150.5t-85 -146.5l-8 -12l-150 104l10 15 q51 72 110.5 126t127.5 111q-86 6 -168 15.5t-164 40.5l-16 6l57 172l12 -4q84 -29 156 -68t145 -80q-16 84 -31.5 163t-15.5 165v16h185v-16z" />
<glyph unicode="+" d="M109 694h387v422h163v-422h388v-162h-388v-423h-163v423h-387v162z" />
<glyph unicode="," horiz-adv-x="503" d="M365 233q2 -16 2 -31.5v-31.5q0 -129 -38 -255t-104 -241l-147 47q51 104 67.5 212t16.5 202q0 27 -1 51.5t-3 46.5h207z" />
<glyph unicode="-" horiz-adv-x="612" d="M53 702h506v-178h-506v178z" />
<glyph unicode="." horiz-adv-x="503" d="M389 111q0 -55 -37 -96.5t-100 -41.5t-100 41t-37 97q0 55 36.5 96t100.5 41q63 0 100 -41t37 -96z" />
<glyph unicode="/" horiz-adv-x="786" d="M145 -379h-194l694 1983h191z" />
<glyph unicode="0" d="M102 711q0 356 126 548.5t350 192.5q223 0 349 -192.5t126 -548.5t-126 -549t-349 -193t-349.5 193t-126.5 549zM852 711q0 117 -13.5 221t-45 182t-85 124t-130.5 46q-78 0 -131.5 -46t-85 -124t-45 -182.5t-13.5 -220.5q0 -117 13.5 -221.5t45 -182.5t85 -124 t131.5 -46t131 46t84.5 124t45 182.5t13.5 221.5z" />
<glyph unicode="1" d="M190 1126q117 45 227.5 116t203.5 177h135v-1419h-191v1155q-25 -23 -60.5 -47.5t-77.5 -47t-88 -43t-89 -34.5z" />
<glyph unicode="2" d="M956 1057q0 -74 -29.5 -142.5t-78.5 -135t-110.5 -131t-123.5 -126.5q-35 -35 -81 -82t-86.5 -98t-68.5 -98t-28 -82h654v-162h-861q-2 12 -2 24.5v22.5q0 96 32 179t83 157t114.5 139.5t125.5 126.5q51 49 97 97.5t82 96.5t57.5 99t21.5 109q0 61 -19.5 104t-52.5 71.5 t-77 42t-93 13.5q-59 0 -108.5 -16.5t-88.5 -38t-65.5 -45t-40.5 -35.5l-94 135q18 20 55 50t88 56.5t114.5 45t137.5 18.5q223 0 334.5 -103.5t111.5 -291.5z" />
<glyph unicode="3" d="M463 139q182 0 261 72t79 192q0 78 -33 131.5t-86 85t-124 45t-144 13.5h-49v156h67q51 0 105.5 10t99.5 36.5t73.5 72.5t28.5 116q0 57 -20.5 98t-54 68t-77.5 38t-93 11q-98 0 -167 -28.5t-116 -59.5l-74 145q25 16 63 36t85 36.5t101 27.5t114 11q113 0 194.5 -27.5 t135 -78t80 -119t26.5 -148.5q0 -111 -63.5 -189.5t-153.5 -119.5q55 -16 106.5 -47t89 -78t61 -108.5t23.5 -137.5q0 -92 -31.5 -170.5t-98 -136t-167 -90.5t-237.5 -33q-53 0 -109.5 8.5t-105.5 20.5t-86 24.5t-53 20.5l37 166q35 -16 115.5 -43t197.5 -27z" />
<glyph unicode="4" d="M82 492q39 90 106.5 209.5t152.5 246.5t182.5 250t195.5 221h182v-901h168v-156h-168v-362h-184v362h-635v130zM717 1194q-61 -66 -124 -146.5t-122 -168.5t-111.5 -180.5t-93.5 -180.5h451v676z" />
<glyph unicode="5" d="M408 872q309 -12 453.5 -135t144.5 -334q0 -94 -32 -173.5t-96.5 -137t-163 -90.5t-233.5 -33q-53 0 -108.5 8.5t-102.5 20.5t-83.5 24.5t-53.5 20.5l37 166q35 -16 113.5 -43t193.5 -27q92 0 154.5 20.5t101.5 55.5t56.5 81t17.5 97q0 78 -26.5 138.5t-94.5 101.5 t-180.5 62.5t-284.5 21.5q12 100 19.5 188t13.5 172t10 167t8 175h684v-162h-518q-2 -31 -6 -83t-8 -108t-8 -109.5t-8 -84.5z" />
<glyph unicode="6" d="M129 569q0 207 57.5 366t163 267.5t256 164.5t338.5 58l14 -159q-121 -2 -220 -27t-177 -78t-131 -138t-80 -210q53 25 120 41t138 16q121 0 205 -36.5t137.5 -97t77 -139.5t23.5 -165q0 -78 -27 -160t-81 -149.5t-138 -110.5t-199 -43q-233 0 -355 159.5t-122 440.5z M588 715q-72 0 -133.5 -13.5t-122.5 -39.5q-2 -23 -3 -46.5t-1 -46.5q0 -90 12 -170t44 -140t85 -96t135 -36q68 0 115 28.5t77.5 73.5t44 97.5t13.5 101.5q0 139 -66.5 213t-199.5 74z" />
<glyph unicode="7" d="M334 0q12 164 58 345t113.5 352t148.5 317.5t159 238.5h-690v166h903v-157q-68 -78 -149.5 -214.5t-154.5 -305.5t-125 -360.5t-65 -381.5h-198z" />
<glyph unicode="8" d="M1042 369q0 -86 -29.5 -159t-88 -127t-146.5 -84t-203 -30q-133 0 -222 38t-142 95.5t-75.5 126t-22.5 129.5q0 59 19.5 113.5t51 102t73.5 85t89 66.5q-201 115 -201 338q0 78 31 148.5t87 124t136 85t179 31.5q115 0 196.5 -35t134 -89t76 -119.5t23.5 -127.5 q0 -59 -17.5 -111t-47.5 -97.5t-67.5 -80t-78.5 -61.5q241 -114 245 -362zM305 356q0 -37 13.5 -76.5t46 -73.5t84 -56.5t129.5 -22.5q70 0 122 20.5t84.5 52t49 72.5t16.5 84q0 66 -24.5 115t-70.5 86t-110.5 62.5t-146.5 44.5q-92 -51 -142.5 -127.5t-50.5 -180.5z M817 1083q0 31 -13 68t-42 68.5t-74 53t-110 21.5q-66 0 -112 -20.5t-75 -52t-42 -69.5t-13 -75q0 -45 16.5 -90t51 -84t91 -69.5t134.5 -49.5q86 51 137 119.5t51 179.5z" />
<glyph unicode="9" d="M1026 852q0 -422 -210 -638t-623 -218l-7 160q129 0 232.5 24.5t181.5 78.5t130 140t77 211q-53 -25 -121 -40t-139 -15q-121 0 -205 36t-137 96.5t-77 139t-24 164.5q0 76 27 158t81 149.5t138 110.5t199 43q117 0 206 -41t149.5 -119t91 -189.5t30.5 -250.5zM567 711 q72 0 135.5 13t122.5 40q2 23 2 44v44q0 88 -12 169t-44 141.5t-85 96t-135 35.5q-68 0 -115 -28.5t-77.5 -72.5t-44 -96.5t-13.5 -101.5q0 -139 66.5 -211.5t199.5 -72.5z" />
<glyph unicode=":" horiz-adv-x="503" d="M389 111q0 -55 -37 -96.5t-100 -41.5t-100 41t-37 97q0 55 36.5 96t100.5 41q63 0 100 -41t37 -96zM389 928q0 -55 -37 -96.5t-100 -41.5t-100 41t-37 97q0 55 36.5 96t100.5 41q63 0 100 -41t37 -96z" />
<glyph unicode=";" horiz-adv-x="503" d="M365 233q2 -16 2 -31.5v-31.5q0 -129 -38 -255t-104 -241l-147 47q51 104 67.5 212t16.5 202q0 27 -1 51.5t-3 46.5h207zM389 928q0 -55 -37 -96.5t-100 -41.5t-100 41t-37 97q0 55 36.5 96t100.5 41q63 0 100 -41t37 -96z" />
<glyph unicode="&#x3c;" d="M319 612l728 -299l-54 -157l-884 374v164l884 375l54 -158z" />
<glyph unicode="=" d="M109 475h938v-162h-938v162zM109 911h938v-161h-938v161z" />
<glyph unicode="&#x3e;" d="M109 911l53 158l885 -375v-164l-885 -374l-53 157l727 299z" />
<glyph unicode="?" horiz-adv-x="827" d="M356 1292q-135 0 -264 -69l-53 147q70 37 157 59.5t185 22.5q117 0 191.5 -31.5t119.5 -81t62.5 -110t17.5 -115.5q0 -70 -26.5 -124t-65.5 -101t-86 -90t-86 -89t-65.5 -100.5t-26.5 -122.5v-22t2 -23h-160q-8 41 -8 86q0 66 23.5 119t60.5 99.5t78 86t77.5 80.5t60 86 t23.5 99q0 86 -55.5 140t-161.5 54zM485 111q0 -55 -36.5 -96.5t-100.5 -41.5q-63 0 -100 41t-37 97q0 55 37 96t100 41t100 -41t37 -96z" />
<glyph unicode="@" horiz-adv-x="1945" d="M1413 88q-66 0 -108.5 18.5t-71.5 49.5q-45 -25 -108.5 -42.5t-127.5 -17.5q-98 0 -179 31t-140.5 91.5t-92 148.5t-32.5 204q0 98 30.5 185.5t91 152t147.5 101.5t198 37q104 0 191 -16.5t135 -33.5v-626q0 -66 22.5 -92.5t58.5 -26.5q53 0 93.5 37t66 96t37.5 134 t12 153q0 129 -45 242.5t-129 199.5t-203.5 135t-269.5 49t-274.5 -50t-214.5 -143t-140.5 -228.5t-50.5 -307.5q0 -180 53.5 -316t148.5 -227.5t225 -137.5t286 -46q121 0 199.5 14.5t101.5 22.5l20 -151q-35 -12 -126 -26.5t-195 -14.5q-182 0 -344 52t-283 159.5 t-191.5 274.5t-70.5 396q0 221 69.5 387t187.5 275.5t272.5 165t326.5 55.5q168 0 317.5 -54.5t262 -157.5t178 -249.5t65.5 -331.5q0 -139 -31.5 -245.5t-85 -179t-127 -109.5t-155.5 -37zM1004 254q43 0 87 9t78 28q-6 27 -8 53.5t-2 50.5v482q-12 4 -47 8t-78 4 q-145 0 -217 -90t-72 -228q0 -145 70 -231t189 -86z" />
<glyph unicode="A" horiz-adv-x="1357" d="M1124 0q-35 92 -65.5 181t-63.5 181h-643l-129 -362h-207q82 225 154 416.5t140.5 363.5t136 329t141.5 310h182q74 -154 141.5 -310.5t136 -328.5t140.5 -363.5t153 -416.5h-217zM938 526q-66 178 -130.5 345t-133.5 321q-72 -154 -136.5 -320.5t-127.5 -345.5h528z" />
<glyph unicode="B" horiz-adv-x="1316" d="M559 -12q-43 0 -93 2t-100.5 6t-99.5 10t-90 17v1376q41 10 90 16t99.5 10.5t99.5 6.5t92 2q123 0 230.5 -18.5t186.5 -62.5t124 -116t45 -176q0 -117 -55.5 -191.5t-147.5 -111.5q125 -37 198.5 -117t73.5 -225q0 -213 -156.5 -320.5t-496.5 -107.5zM373 662v-500 q23 -2 53 -4q27 -2 62.5 -3t82.5 -1q88 0 167 11t138.5 39.5t95.5 80t36 129.5q0 70 -27 118t-77 76.5t-119.5 41t-155.5 12.5h-256zM373 821h209q74 0 139 10.5t113.5 37t76 69.5t27.5 109q0 61 -28.5 103t-79 67.5t-118 38t-143.5 12.5t-118.5 -2t-77.5 -6v-439z" />
<glyph unicode="C" horiz-adv-x="1269" d="M786 -31q-150 0 -272.5 49.5t-210.5 143.5t-136 232t-48 317q0 178 54 316t146.5 232.5t215 143.5t262.5 49q88 0 158.5 -12.5t122.5 -28.5t85 -32.5t45 -24.5l-57 -164q-18 12 -53 26.5t-79 29t-96.5 23.5t-105.5 9q-113 0 -203 -39t-153.5 -112.5t-97 -179 t-33.5 -236.5q0 -127 29.5 -231.5t89 -179.5t148.5 -116t208 -41q137 0 227 29t135 51l52 -164q-14 -10 -51.5 -25.5t-92.5 -29.5t-129 -24.5t-160 -10.5z" />
<glyph unicode="D" horiz-adv-x="1460" d="M1341 711q0 -184 -57 -320.5t-161.5 -225.5t-250 -133t-319.5 -44q-86 0 -189.5 7t-187.5 28v1376q84 20 187.5 27.5t189.5 7.5q174 0 319.5 -44t250 -133.5t161.5 -225.5t57 -320zM569 162q283 0 422 144.5t139 404.5t-139 404.5t-422 144.5q-84 0 -130 -2.5t-64 -4.5 v-1085q18 -2 64 -4t130 -2z" />
<glyph unicode="E" horiz-adv-x="1169" d="M176 0v1419h866v-170h-667v-422h594v-165h-594v-492h719v-170h-918z" />
<glyph unicode="F" horiz-adv-x="1099" d="M176 0v1419h856v-170h-657v-428h583v-168h-583v-653h-199z" />
<glyph unicode="G" horiz-adv-x="1376" d="M1042 698h199v-663q-25 -8 -71 -18.5t-106 -20.5t-132 -17.5t-146 -7.5q-150 0 -272.5 49.5t-210.5 143.5t-136 231t-48 316q0 178 54 316t146.5 232.5t216 143.5t265.5 49q96 0 171 -12.5t128 -28.5t87 -32.5t46 -24.5l-64 -166q-59 39 -157.5 64.5t-200.5 25.5 q-109 0 -198 -39t-151.5 -112.5t-97 -179t-34.5 -236.5q0 -127 29.5 -231.5t90 -179.5t149.5 -116t210 -41q86 0 146.5 9.5t86.5 17.5v528z" />
<glyph unicode="H" horiz-adv-x="1443" d="M1069 1419h199v-1419h-199v655h-694v-655h-199v1419h199v-592h694v592z" />
<glyph unicode="I" horiz-adv-x="550" d="M176 1419h199v-1419h-199v1419z" />
<glyph unicode="J" horiz-adv-x="1024" d="M858 457q0 -102 -21.5 -190.5t-75.5 -155t-145.5 -104.5t-228.5 -38q-70 0 -128 11.5t-105.5 29t-82 37t-55.5 37.5l78 158q43 -31 111.5 -65t171.5 -34q147 0 214.5 75t67.5 257v944h199v-962z" />
<glyph unicode="K" horiz-adv-x="1288" d="M1227 1419q-63 -70 -143 -154.5t-167.5 -174t-173.5 -175.5t-161 -159q88 -61 186 -151.5t192.5 -193t177.5 -209t138 -202.5h-234q-61 96 -141 193.5t-169 186.5t-180 165t-177 129v-674h-199v1419h199v-626q72 68 157.5 152.5t169.5 170.5t159 165t126 138h240z" />
<glyph unicode="L" horiz-adv-x="1062" d="M1030 172v-172h-854v1419h199v-1247h655z" />
<glyph unicode="M" horiz-adv-x="1783" d="M813 197q-20 49 -54 124.5t-73 163.5t-83 181.5t-83 176.5t-72.5 148.5t-54.5 100.5q-23 -242 -37 -523.5t-24 -568.5h-195q8 184 18.5 371.5t24 369t28.5 353.5t34 325h174q55 -90 118.5 -213t127 -257t123 -268t108.5 -245q49 111 108.5 245t123 268t127 257t118.5 213 h174q70 -686 105 -1419h-195q-10 287 -24.5 568.5t-36.5 523.5q-20 -35 -54 -100.5t-73 -148.5t-83 -176.5t-83 -181.5t-73 -163.5t-54 -124.5h-160z" />
<glyph unicode="N" horiz-adv-x="1490" d="M1149 0q-45 76 -103.5 170t-126 195.5t-140 206t-144.5 201.5t-139.5 183t-124.5 152v-1108h-195v1419h158q96 -102 205.5 -238.5t217 -280.5t203 -283.5t160.5 -247.5v1050h195v-1419h-166z" />
<glyph unicode="O" horiz-adv-x="1593" d="M119 711q0 182 54 321t147.5 232.5t217.5 140.5t263 47q137 0 259 -47t214 -140.5t146.5 -232.5t54.5 -321t-54.5 -321.5t-146.5 -233t-214 -140.5t-259 -47q-139 0 -263 47t-217.5 140.5t-147.5 233t-54 321.5zM328 711q0 -129 32.5 -234.5t93 -179.5t147.5 -114 t196 -40t194.5 40t146 114t93.5 179.5t33 234.5t-33 234.5t-93.5 179t-146.5 113.5t-194 40q-109 0 -196 -40t-147.5 -113.5t-93 -179t-32.5 -234.5z" />
<glyph unicode="P" horiz-adv-x="1245" d="M553 1434q299 0 460 -114t161 -339q0 -123 -44.5 -210t-127 -141.5t-201.5 -79t-269 -24.5h-157v-526h-199v1399q84 20 187.5 27.5t189.5 7.5zM569 1260q-127 0 -194 -7v-557h149q102 0 184.5 13.5t138.5 45t87 87t31 141.5q0 82 -32 135t-86 85t-126 44.5t-152 12.5z " />
<glyph unicode="Q" horiz-adv-x="1593" d="M119 711q0 182 54 321t147.5 232.5t217.5 140.5t263 47q137 0 259 -47t214 -140.5t146.5 -232.5t54.5 -321q0 -160 -41 -285t-114 -216t-170 -147.5t-208 -76.5q2 -47 42 -83t101.5 -60.5t137 -41t151.5 -24.5l-47 -156q-106 14 -203.5 38t-176.5 62.5t-132 99t-72 150.5 q-129 8 -243.5 60.5t-198.5 145.5t-133 226.5t-49 307.5zM328 711q0 -129 32.5 -234.5t93 -179.5t147.5 -114t196 -40t194.5 40t146 114t93.5 179.5t33 234.5t-33 234.5t-93.5 179t-146.5 113.5t-194 40q-109 0 -196 -40t-147.5 -113.5t-93 -179t-32.5 -234.5z" />
<glyph unicode="R" horiz-adv-x="1288" d="M870 594q33 -41 83.5 -107.5t103.5 -147.5t105 -169t89 -170h-217q-41 78 -89 158t-97 152.5t-97.5 136t-86.5 110.5q-27 -2 -54.5 -2h-56.5h-178v-555h-199v1399q84 20 187.5 27.5t189.5 7.5q299 0 455.5 -113t156.5 -336q0 -141 -75 -241.5t-220 -149.5zM569 1260 q-127 0 -194 -7v-534h141q102 0 184 10t138.5 39t87 81t30.5 138q0 80 -30.5 133.5t-82.5 84t-123 43t-151 12.5z" />
<glyph unicode="S" horiz-adv-x="1089" d="M506 141q311 0 311 213q0 66 -27.5 112t-74.5 80t-107.5 58.5t-128.5 48.5q-78 27 -147.5 61t-120.5 80t-81 109.5t-30 153.5q0 186 127 290.5t351 104.5q129 0 234.5 -27.5t154.5 -60.5l-64 -162q-43 27 -128 52.5t-197 25.5q-57 0 -106.5 -12.5t-86.5 -37t-58.5 -62.5 t-21.5 -89q0 -57 22.5 -96t63.5 -68.5t95.5 -54t119.5 -49.5q92 -37 169 -74t133.5 -88t87 -121.5t30.5 -171.5q0 -186 -136 -286.5t-384 -100.5q-84 0 -154.5 11.5t-126 27t-95.5 32.5t-62 30l59 163q47 -27 143.5 -59.5t235.5 -32.5z" />
<glyph unicode="T" horiz-adv-x="1157" d="M1124 1419v-172h-446v-1247h-199v1247h-446v172h1091z" />
<glyph unicode="U" horiz-adv-x="1409" d="M705 -31q-139 0 -242 43t-168.5 118t-97 177.5t-31.5 220.5v891h199v-868q0 -213 94 -309.5t246 -96.5q76 0 138 24t107 73t69.5 125.5t24.5 183.5v868h199v-891q0 -119 -31.5 -221t-98 -177t-168 -118t-240.5 -43z" />
<glyph unicode="V" horiz-adv-x="1343" d="M1323 1419q-78 -225 -148.5 -416.5t-138 -363.5t-134 -328.5t-136.5 -310.5h-186q-70 154 -136.5 310.5t-135 328.5t-140.5 363.5t-148 416.5h220q111 -324 217 -622.5t219 -560.5q113 260 219 560t215 623h213z" />
<glyph unicode="W" horiz-adv-x="1902" d="M952 963q-86 -274 -174 -508t-176 -455h-199q-109 313 -191.5 661.5t-154.5 757.5h209q29 -160 59.5 -319.5t63.5 -310t65.5 -287.5t67.5 -254q82 215 174 472t172 531h172q80 -274 174.5 -531t176.5 -472q33 115 65.5 252t64 287.5t62.5 311.5t59 320h203 q-74 -410 -156.5 -758t-189.5 -661h-199q-90 221 -176 455t-172 508z" />
<glyph unicode="X" horiz-adv-x="1292" d="M1028 0q-31 61 -74 136t-94 156t-106.5 162t-106.5 152q-51 -72 -106.5 -152.5t-105.5 -161.5t-94 -156t-75 -136h-219q92 180 214 366.5t259 383.5l-454 669h229l350 -528l346 528h228l-447 -661q139 -199 262 -387.5t217 -370.5h-223z" />
<glyph unicode="Y" horiz-adv-x="1224" d="M514 0v569q-141 219 -266 432t-236 418h234q78 -168 174 -341t198 -333q100 160 196.5 333t176.5 341h221q-111 -205 -235.5 -416.5t-263.5 -429.5v-573h-199z" />
<glyph unicode="Z" horiz-adv-x="1173" d="M1077 1262q-47 -53 -109.5 -128t-132 -166t-143.5 -192.5t-144.5 -205t-134 -206t-114.5 -194.5h799v-170h-1030v133q43 82 101 180.5t124.5 200.5t138.5 206.5t142.5 201t137 180.5t122.5 147h-730v170h973v-157z" />
<glyph unicode="[" horiz-adv-x="673" d="M197 1604h460v-150h-282v-1683h282v-150h-460v1983z" />
<glyph unicode="\" horiz-adv-x="786" d="M-49 1604h190l695 -1983h-195z" />
<glyph unicode="]" horiz-adv-x="673" d="M477 -379h-461v150h283v1683h-283v150h461v-1983z" />
<glyph unicode="^" d="M662 1419l397 -696l-152 -78l-329 578l-330 -578l-152 78l398 696h168z" />
<glyph unicode="_" horiz-adv-x="1007" d="M-8 -217h1024v-162h-1024v162z" />
<glyph unicode="`" horiz-adv-x="770" d="M248 1589l262 -315l-96 -86l-289 280z" />
<glyph unicode="a" horiz-adv-x="1069" d="M524 137q68 0 120 3t87 12v317q-20 10 -66.5 17.5t-111.5 7.5q-43 0 -91 -6.5t-88 -26t-66.5 -53t-26.5 -89.5q0 -102 65 -142t178 -40zM508 1092q115 0 193.5 -30t127 -84t69 -129t20.5 -165v-666q-25 -4 -69 -11t-99.5 -13t-120 -11.5t-127.5 -5.5q-90 0 -166 18.5 t-131 58.5t-86 105.5t-31 157.5q0 88 36 151.5t97.5 102.5t143 57.5t172.5 18.5q29 0 59.5 -3t58 -8t48 -9t28.5 -6v53q0 47 -10 93t-37 82t-73 57.5t-119 21.5q-94 0 -165 -13.5t-106 -27.5l-22 157q37 16 123 32t186 16z" />
<glyph unicode="b" horiz-adv-x="1206" d="M354 1018q35 23 105.5 47.5t163.5 24.5q115 0 203.5 -41t150 -115t93.5 -176.5t32 -225.5q0 -129 -38 -232t-107.5 -175t-168 -111t-221.5 -39q-133 0 -235.5 18.5t-167.5 37.5v1525l190 33v-571zM354 166q29 -8 81 -15.5t130 -7.5q154 0 246 101.5t92 287.5 q0 82 -16.5 154t-53 124t-95 82t-140.5 30q-78 0 -143.5 -27t-100.5 -55v-674z" />
<glyph unicode="c" horiz-adv-x="952" d="M627 -25q-129 0 -226.5 41t-164 115t-99.5 175.5t-33 223.5q0 123 36 225.5t101.5 177.5t161 117t211.5 42q72 0 143.5 -12.5t137.5 -39.5l-43 -161q-43 20 -99.5 32.5t-119.5 12.5q-160 0 -245 -100.5t-85 -293.5q0 -86 19.5 -157.5t61.5 -122.5t107.5 -79t159.5 -28 q76 0 137.5 14.5t96.5 30.5l26 -159q-16 -10 -46.5 -19.5t-69.5 -16.5t-83 -12.5t-85 -5.5z" />
<glyph unicode="d" horiz-adv-x="1206" d="M852 840q-35 29 -100.5 55.5t-143.5 26.5q-82 0 -140 -30t-95 -82t-53.5 -124t-16.5 -154q0 -186 92 -287.5t246 -101.5q78 0 130 7.5t81 15.5v674zM852 1556l190 33v-1558q-66 -18 -168 -37t-235 -19q-123 0 -221.5 39t-168 111t-107.5 175t-38 232q0 123 32 225.5 t93.5 176.5t150.5 115t204 41q92 0 162.5 -25t105.5 -47v538z" />
<glyph unicode="e" horiz-adv-x="1144" d="M104 530q0 141 41 247t109 175.5t156 104.5t180 35q215 0 329.5 -134.5t114.5 -408.5v-31.5t-2 -36.5h-729q12 -166 96 -252t263 -86q100 0 168.5 17.5t103.5 34.5l27 -160q-35 -18 -122 -39t-198 -21q-139 0 -240.5 42t-167 116t-97.5 175t-32 222zM836 635 q2 129 -64.5 212t-183.5 83q-66 0 -116 -25.5t-85 -66.5t-54.5 -94.5t-25.5 -108.5h529z" />
<glyph unicode="f" horiz-adv-x="790" d="M580 1589q84 0 144 -12t85 -23l-35 -163q-25 12 -70 23t-110 11q-133 0 -186.5 -72.5t-53.5 -195.5v-92h410v-160h-410v-905h-190v1161q0 205 100.5 316.5t315.5 111.5z" />
<glyph unicode="g" horiz-adv-x="1183" d="M831 106q-25 -16 -95 -41.5t-165 -25.5q-96 0 -181 30.5t-148.5 95t-100.5 161t-37 229.5q0 117 35 214t101.5 168t163 110.5t217.5 39.5q133 0 232 -19t167 -36v-950q0 -246 -127 -356.5t-385 -110.5q-100 0 -189.5 16.5t-154.5 38.5l35 166q57 -23 140 -40t173 -17 q170 0 244.5 67.5t74.5 214.5v45zM829 897q-29 8 -76.5 15.5t-129.5 7.5q-154 0 -237 -100.5t-83 -266.5q0 -92 23.5 -157.5t63.5 -108.5t92.5 -63.5t107.5 -20.5q76 0 139.5 21.5t99.5 49.5v623z" />
<glyph unicode="h" horiz-adv-x="1169" d="M164 0v1556l190 33v-545q53 20 113.5 31.5t120.5 11.5q127 0 211 -35.5t134 -100t70.5 -154.5t20.5 -199v-598h-190v557q0 98 -13.5 168t-44.5 113t-82 62.5t-127 19.5q-31 0 -63.5 -4.5t-62 -9.5t-53 -11t-34.5 -10v-885h-190z" />
<glyph unicode="i" horiz-adv-x="518" d="M354 0h-190v1065h190v-1065zM258 1257q-51 0 -87 34t-36 91t36 91t87 34t87 -33.5t36 -91.5q0 -57 -36 -91t-87 -34z" />
<glyph unicode="j" horiz-adv-x="518" d="M-10 -383q-25 0 -64 6t-65 17l24 155q20 -6 47 -10t50 -4q98 0 140 60.5t42 176.5v1047h190v-1045q0 -205 -93 -304t-271 -99zM258 1257q-51 0 -87 34t-36 91t36 91t87 34t87 -33.5t36 -91.5q0 -57 -36 -91t-87 -34z" />
<glyph unicode="k" horiz-adv-x="1069" d="M549 586q61 -47 130 -117t135.5 -150.5t125.5 -163.5t100 -155h-223q-43 72 -99 146.5t-117.5 143t-125 126t-121.5 96.5v-512h-190v1556l190 33v-971l108.5 108.5t117 121t108.5 118t88 99.5h223q-47 -51 -102 -112.5t-114.5 -124t-120 -125t-113.5 -117.5z" />
<glyph unicode="l" horiz-adv-x="559" d="M483 -20q-176 4 -249.5 75.5t-73.5 223.5v1277l190 33v-1280q0 -47 8.5 -77.5t26.5 -49t49 -28t76 -15.5z" />
<glyph unicode="m" horiz-adv-x="1763" d="M164 1034q66 16 173 34.5t249 18.5q102 0 171.5 -27.5t116.5 -80.5q14 10 45 28.5t76 36t100.5 30.5t118.5 13q123 0 201 -35.5t122 -101t59.5 -155.5t15.5 -197v-598h-191v557q0 94 -9 161.5t-34.5 113t-69.5 67t-114 21.5q-96 0 -158.5 -26t-85.5 -46 q16 -53 24.5 -116.5t8.5 -133.5v-598h-190v557q0 94 -10.5 161.5t-36 113t-69.5 67t-112 21.5q-29 0 -61.5 -2.5t-62 -5.5t-54.5 -7t-33 -6v-899h-190v1034z" />
<glyph unicode="n" horiz-adv-x="1175" d="M164 1034q66 16 174 34.5t250 18.5q127 0 211 -35.5t134 -100t70.5 -154.5t20.5 -199v-598h-190v557q0 98 -13.5 168t-44.5 113t-82 62.5t-127 19.5q-31 0 -63.5 -2.5t-62 -5.5t-53 -7t-34.5 -6v-899h-190v1034z" />
<glyph unicode="o" horiz-adv-x="1208" d="M1104 532q0 -127 -37 -229t-103.5 -176t-158.5 -114t-201 -40t-201 40t-158.5 114t-103.5 176.5t-37 228.5q0 125 37 228.5t103.5 177.5t159 114t200.5 40q109 0 201 -40t158.5 -114t103.5 -177.5t37 -228.5zM905 532q0 180 -81 286t-220 106t-220 -105.5t-81 -286.5 q0 -180 81 -285.5t220 -105.5t220 105.5t81 285.5z" />
<glyph unicode="p" horiz-adv-x="1206" d="M903 530q0 186 -92 287t-246 101q-86 0 -134 -6.5t-77 -14.5v-672q35 -29 100.5 -55.5t143.5 -26.5q82 0 140.5 30t95 82t53 122.5t16.5 152.5zM1102 530q0 -121 -32 -223t-93.5 -176t-150.5 -115t-203 -41q-92 0 -163 25t-106 47v-426h-190v1411q68 16 169 35.5 t234 19.5q123 0 221.5 -38.5t168 -110.5t107.5 -175.5t38 -232.5z" />
<glyph unicode="q" horiz-adv-x="1206" d="M303 530q0 -82 16.5 -152.5t53.5 -122.5t95 -82t140 -30q78 0 143.5 27t100.5 55v672q-29 8 -77 14.5t-134 6.5q-154 0 -246 -101t-92 -287zM104 530q0 129 38 232.5t107.5 175.5t168 110.5t221.5 38.5q133 0 234.5 -19t168.5 -36v-1411h-190v426q-35 -23 -105.5 -47.5 t-162.5 -24.5q-115 0 -204 41t-150.5 115t-93.5 176t-32 223z" />
<glyph unicode="r" horiz-adv-x="790" d="M557 1087q25 0 56.5 -3t62.5 -8t56.5 -10t37.5 -9l-33 -166q-23 8 -75 19.5t-134 11.5q-53 0 -105 -11.5t-69 -15.5v-895h-190v1020q68 25 168 46t225 21z" />
<glyph unicode="s" horiz-adv-x="913" d="M412 137q117 0 173 31t56 98q0 70 -55.5 111t-182.5 92q-61 25 -117.5 50.5t-97.5 60t-65.5 84t-24.5 120.5q0 141 104.5 224.5t284.5 83.5q45 0 90.5 -5.5t84 -12.5t68.5 -15t46 -15l-35 -163q-31 16 -96 33.5t-158 17.5q-80 0 -139 -32t-59 -99q0 -35 13 -61.5t41 -48 t69 -40t98 -39.5q76 -29 135.5 -56.5t101 -64t64.5 -89t23 -128.5q0 -147 -110 -223t-312 -76q-141 0 -221 24t-109 36l35 164q33 -12 104.5 -37t190.5 -25z" />
<glyph unicode="t" horiz-adv-x="823" d="M342 1065h403v-160h-403v-491q0 -80 12.5 -132.5t37 -82t61 -42t86.5 -12.5q86 0 138 19.5t73 28.5l36 -158q-29 -14 -100.5 -36t-163.5 -22q-109 0 -179.5 28t-113.5 83t-60 136t-17 188v950l190 33v-330z" />
<glyph unicode="u" horiz-adv-x="1175" d="M1012 31q-66 -16 -173.5 -35t-248.5 -19q-123 0 -207 36t-135 101.5t-73.5 154.5t-22.5 198v598h190v-557q0 -195 61.5 -279t206.5 -84q31 0 64 2.5t61.5 5.5t52 6t33.5 7v899h191v-1034z" />
<glyph unicode="v" horiz-adv-x="1028" d="M995 1065q-80 -299 -187.5 -573.5t-207.5 -491.5h-172q-100 217 -207.5 491.5t-187.5 573.5h205q25 -100 58.5 -214t71.5 -225.5t76.5 -216t73.5 -186.5q35 82 74 186.5t77 216t71.5 225.5t58.5 214h196z" />
<glyph unicode="w" horiz-adv-x="1591" d="M1034 0q-57 147 -121.5 336.5t-117.5 394.5q-53 -205 -117 -394.5t-121 -336.5h-166q-94 211 -184 481.5t-170 583.5h205q20 -96 48.5 -209t60.5 -225.5t67 -217t65 -182.5q35 96 69 204t64.5 217.5t58 215t48.5 197.5h158q18 -92 44.5 -197.5t57.5 -215t64.5 -217 t68.5 -204.5q31 78 64.5 182.5t66.5 217t61.5 225.5t49.5 209h196q-80 -313 -170 -583.5t-184 -481.5h-166z" />
<glyph unicode="x" horiz-adv-x="1046" d="M801 0q-23 45 -55.5 100.5t-71.5 113.5t-80 115.5t-80 108.5q-39 -51 -80 -109.5t-79 -116.5t-70.5 -113.5t-55.5 -98.5h-196q72 139 171 283.5t197 275.5l-352 506h215l254 -373l256 373h203l-344 -494q98 -133 201.5 -281.5t175.5 -289.5h-209z" />
<glyph unicode="y" horiz-adv-x="1017" d="M39 -199q23 -10 58.5 -19t70.5 -9q113 0 176.5 50t114.5 163q-129 246 -241 521t-185 558h205q23 -92 54.5 -198.5t70 -219t84 -225.5t94.5 -217q78 215 135 426t108 434h197q-74 -301 -164 -578.5t-194 -519.5q-41 -92 -85 -158.5t-97.5 -109.5t-120 -63.5t-150.5 -20.5 q-23 0 -47.5 3t-48 8t-43 11.5t-27.5 10.5z" />
<glyph unicode="z" horiz-adv-x="964" d="M870 922q-43 -47 -113.5 -133.5t-151.5 -190.5t-162 -219t-142 -219h586v-160h-813v127q49 90 120.5 198.5t150.5 216t153.5 203t130.5 160.5h-527v160h768v-143z" />
<glyph unicode="{" horiz-adv-x="681" d="M82 686q49 0 84 17.5t58.5 45t34.5 63.5t11 73v368q0 84 18.5 149.5t63.5 109.5t120 68t185 24h9v-150q-117 0 -167 -42t-50 -161v-315q0 -135 -36 -209t-102 -115q66 -41 102 -114.5t36 -208.5v-316q0 -119 50 -160.5t167 -41.5v-150h-9q-111 0 -185.5 22.5t-119.5 67.5 t-63.5 110.5t-18.5 149.5v369q0 37 -11 73t-34.5 63.5t-58.5 45t-84 17.5v147z" />
<glyph unicode="|" horiz-adv-x="571" d="M197 1604h178v-1983h-178v1983z" />
<glyph unicode="}" horiz-adv-x="681" d="M600 539q-49 0 -84 -17.5t-58.5 -45t-34.5 -63.5t-11 -73v-369q0 -84 -18.5 -149.5t-63.5 -110.5t-120 -67.5t-185 -22.5h-9v150q117 0 167 42t50 160v316q0 135 36 208.5t102 114.5q-66 41 -102 115t-36 209v315q0 119 -50 161t-167 42v150h9q111 0 185.5 -24t119.5 -68 t63.5 -109.5t18.5 -149.5v-368q0 -37 11 -73t34.5 -63.5t58.5 -45t84 -17.5v-147z" />
<glyph unicode="~" d="M1065 731q-8 -41 -25.5 -90t-50.5 -93t-83 -74t-122 -30q-61 0 -113.5 25t-99.5 53q-55 33 -106 64.5t-109 31.5q-33 0 -55 -15t-38.5 -38.5t-27 -51.5t-18.5 -54l-131 37q8 39 26.5 89t50.5 94t82 73.5t122 29.5q61 0 113 -24.5t100 -52.5q55 -33 106 -65t109 -32 q33 0 55 15.5t38.5 39t27 51t18.5 54.5z" />
<glyph unicode="&#xa2;" d="M176 596q0 100 27.5 188t78 158t124 117t165.5 65v295h170v-284q119 -6 226 -48l-43 -157q-43 18 -99.5 30.5t-119.5 12.5q-160 0 -245 -96.5t-85 -280.5q0 -82 19.5 -150.5t61.5 -117.5t107.5 -76t159.5 -27q76 0 137.5 14.5t95.5 28.5l27 -155q-29 -16 -98.5 -31.5 t-143.5 -20.5v-284h-170v295q-98 18 -171.5 64t-123 114.5t-75 157t-25.5 188.5z" />
<glyph unicode="&#xa3;" d="M504 764h387v-154h-387v-16q0 -102 -8.5 -215t-24.5 -215h592v-164h-807q23 145 40 289.5t17 290.5v30h-190v154h190v170q0 152 32 251t90.5 157.5t140 81t180.5 22.5q90 0 151.5 -16.5t118.5 -38.5l-47 -164q-109 51 -231 51q-55 0 -100.5 -16.5t-77 -55.5t-49 -104.5 t-17.5 -163.5v-174z" />
<glyph unicode="&#xa5;" d="M485 0v217h-331v145h331v209h-331v146h278q-111 180 -210 357t-187 345h211q74 -160 160 -319.5t178 -306.5q90 147 173 307t158 319h207q-90 -170 -189 -347t-210 -355h281v-146h-332v-209h332v-145h-332v-217h-187z" />
<glyph unicode="&#xa8;" horiz-adv-x="770" d="M190 1262q-47 0 -82.5 33.5t-35.5 86.5t35.5 87t82.5 34t83 -33.5t36 -87.5q0 -53 -36 -86.5t-83 -33.5zM580 1262q-47 0 -83 33.5t-36 86.5t35.5 87t83.5 34q47 0 82.5 -33.5t35.5 -87.5q0 -53 -35.5 -86.5t-82.5 -33.5z" />
<glyph unicode="&#xa9;" horiz-adv-x="1667" d="M1534 711q0 -174 -57.5 -312.5t-153.5 -233.5t-223 -145.5t-266 -50.5t-266.5 50.5t-223.5 145.5t-153.5 233.5t-57.5 312.5t57.5 312t153.5 233.5t223 145.5t267 50q139 0 266 -50t223 -145.5t153.5 -233.5t57.5 -312zM1384 711q0 135 -40.5 246.5t-113.5 191.5 t-174.5 123t-221.5 43q-121 0 -222.5 -43t-174 -123t-113.5 -191.5t-41 -246.5t41 -247t113.5 -191.5t174 -123t222.5 -43.5t222 43.5t174 123t113.5 191.5t40.5 247zM858 287q-88 0 -159.5 28.5t-124 82t-81 132t-28.5 181.5q0 100 31.5 178t85 132t125 83t151.5 29 q53 0 97 -8.5t77 -19.5t54.5 -22.5t29.5 -17.5l-47 -123q-25 14 -79 33.5t-126 19.5q-104 0 -173.5 -72.5t-69.5 -211.5q0 -127 63.5 -208t185.5 -81q80 0 132.5 17.5t80.5 31.5l39 -123q-10 -6 -33.5 -17.5t-58.5 -20.5t-79 -16t-93 -7z" />
<glyph unicode="&#xab;" horiz-adv-x="1021" d="M61 582l320 452l133 -71l-227 -381l227 -381l-133 -72zM487 582l320 452l133 -71l-227 -381l227 -381l-133 -72z" />
<glyph unicode="&#xad;" horiz-adv-x="612" d="M53 702h506v-178h-506v178z" />
<glyph unicode="&#xae;" horiz-adv-x="1667" d="M1534 711q0 -174 -57.5 -312.5t-153.5 -233.5t-223 -145.5t-266 -50.5t-266.5 50.5t-223.5 145.5t-153.5 233.5t-57.5 312.5t57.5 312t153.5 233.5t223 145.5t267 50q139 0 266 -50t223 -145.5t153.5 -233.5t57.5 -312zM1384 711q0 135 -40.5 246.5t-113.5 191.5 t-174.5 123t-221.5 43q-121 0 -222.5 -43t-174 -123t-113.5 -191.5t-41 -246.5t41 -247t113.5 -191.5t174 -123t222.5 -43.5t222 43.5t174 123t113.5 191.5t40.5 247zM1036 303q-47 92 -105.5 175t-101.5 132h-137v-307h-145v795q55 12 116.5 18t112.5 6q176 0 268.5 -65.5 t92.5 -198.5q0 -76 -40 -132t-114 -87q20 -25 47 -61.5t55.5 -81.5t57 -94.5t51.5 -98.5h-158zM692 729h78q92 0 153.5 25.5t61.5 105.5q0 76 -58.5 105.5t-140.5 29.5q-23 0 -47 -1t-47 -3v-262z" />
<glyph unicode="&#xaf;" horiz-adv-x="770" d="M94 1456h582v-147h-582v147z" />
<glyph unicode="&#xb4;" horiz-adv-x="770" d="M645 1468l-289 -280l-96 86l262 315z" />
<glyph unicode="&#xb8;" horiz-adv-x="770" d="M408 -76q59 -29 85.5 -62.5t26.5 -99.5q0 -23 -10 -49t-34.5 -48.5t-65.5 -37t-101 -14.5q-53 0 -97 8t-71 19l23 116q25 -8 52.5 -14t62.5 -6q74 0 73 47q0 23 -22.5 38t-63.5 32l-14 6q6 20 18.5 47.5t24.5 54.5t23.5 48.5t17.5 31.5h131q-12 -23 -30.5 -57.5 t-28.5 -59.5z" />
<glyph unicode="&#xbb;" horiz-adv-x="1021" d="M215 129l-133 72l227 381l-227 381l133 71l320 -452zM641 129l-133 72l227 381l-227 381l133 71l320 -452z" />
<glyph unicode="&#xc6;" horiz-adv-x="1914" d="M1788 1253h-617v-428h543v-161h-543v-498h668v-166h-864v365h-559q-49 -90 -97.5 -181.5t-93.5 -183.5h-213q117 221 228.5 416.5t218 370t210 331t205.5 301.5h914v-166zM975 1264q-109 -147 -225.5 -334t-241.5 -404h467v738z" />
<glyph unicode="&#xc7;" horiz-adv-x="1269" d="M676 -23q-127 16 -229.5 72.5t-175 150t-112.5 221.5t-40 290q0 178 54 316t146.5 232.5t215 143.5t262.5 49q88 0 158.5 -12.5t122.5 -28.5t85 -32.5t45 -24.5l-57 -164q-18 12 -53 26.5t-79 29t-96.5 23.5t-105.5 9q-113 0 -203 -39t-153.5 -112.5t-97 -179 t-33.5 -236.5q0 -127 29.5 -231.5t89 -179.5t148.5 -116t208 -41q137 0 227 29t135 51l52 -164q-29 -23 -138.5 -54.5t-277.5 -35.5q-6 -12 -11.5 -23.5t-9.5 -21.5q59 -29 86 -62.5t27 -99.5q0 -23 -10.5 -49t-35 -48.5t-65.5 -37t-100 -14.5q-53 0 -97 8t-71 19l23 116 q25 -8 52 -14t62 -6q74 0 74 47q0 23 -22.5 38t-63.5 32l-14 6q8 25 21.5 57t27.5 61z" />
<glyph unicode="&#xe6;" horiz-adv-x="1759" d="M1255 -25q-117 0 -203.5 28t-152.5 81q-20 -14 -54 -32.5t-81 -36t-105.5 -29t-128.5 -11.5q-102 0 -183 18.5t-138 59.5t-88 106.5t-31 157.5q0 88 36 151.5t97.5 102.5t143.5 57.5t172 18.5q29 0 59.5 -3t57 -8t47 -9t28.5 -6v53q0 47 -10 93t-37 82t-73 57.5 t-119 21.5q-94 0 -165 -13.5t-106 -27.5l-22 157q37 16 122 32t183 16q141 0 224 -48.5t124 -134.5q68 92 160 137.5t192 45.5q213 0 329 -135.5t116 -407.5q0 -16 -1 -27.5t-1 -21.5v-19h-729q12 -164 97 -251t261 -87q100 0 168.5 17.5t103.5 34.5l27 -160 q-35 -18 -122 -39t-198 -21zM535 137q106 0 167.5 23.5t94.5 46.5q-31 57 -48.5 122.5t-19.5 139.5q-23 10 -65.5 17.5t-108.5 7.5q-43 0 -91 -6.5t-88 -26t-66.5 -53t-26.5 -89.5q0 -104 66.5 -143t185.5 -39zM1450 635q2 129 -64.5 212t-183.5 83q-66 0 -116 -25.5 t-83.5 -66.5t-54 -94.5t-26.5 -108.5h528z" />
<glyph unicode="&#xe7;" horiz-adv-x="952" d="M651 -25l-22 -51q59 -29 85.5 -62.5t26.5 -99.5q0 -23 -10 -49t-34.5 -48.5t-65.5 -37t-101 -14.5q-53 0 -97 8t-71 19l23 116q25 -8 52.5 -14t62.5 -6q74 0 73 47q0 23 -22.5 38t-63.5 32l-14 6q8 25 22.5 59.5t30.5 65.5q-104 14 -183 60t-132 117.5t-80 165t-27 203.5 q0 123 36 225.5t101.5 177.5t161 117t211.5 42q72 0 143.5 -12.5t137.5 -39.5l-43 -161q-43 20 -99.5 32.5t-119.5 12.5q-160 0 -245 -100.5t-85 -293.5q0 -86 19.5 -157.5t61.5 -122.5t107.5 -79t159.5 -28q76 0 137.5 14.5t96.5 30.5l26 -159q-16 -8 -43.5 -17.5 t-62.5 -16.5t-75 -12.5t-79 -7.5z" />
<glyph unicode="&#x127;" horiz-adv-x="1169" d="M164 0v1257h-152v142h152v157l190 33v-190h363v-142h-363v-221q53 20 113.5 31.5t120.5 11.5q127 0 211 -35.5t134 -100t70.5 -155t20.5 -198.5v-590h-190v549q0 98 -13.5 167.5t-44.5 112.5t-82 62.5t-127 19.5q-31 0 -63.5 -4t-62 -9t-53 -11t-34.5 -10v-877h-190z" />
<glyph unicode="&#x131;" horiz-adv-x="518" d="M354 0h-190v1065h190v-1065z" />
<glyph unicode="&#x138;" horiz-adv-x="1099" d="M553 580q63 -45 137 -114t144.5 -148.5t132 -162.5t104.5 -155h-225q-45 70 -105.5 142.5t-126 140t-133 125t-127.5 96.5v-504h-190v1065h190v-457q49 47 112.5 109.5t128 127t120 123t90.5 97.5h221q-45 -49 -105.5 -111.5t-125 -128t-128 -130t-114.5 -115.5z" />
<glyph unicode="&#x182;" horiz-adv-x="1267" d="M375 1249v-360h176q150 0 267.5 -24.5t199.5 -79t125 -139.5t43 -208q0 -225 -164 -338.5t-463 -113.5q-43 0 -93 2t-100.5 6t-99.5 10t-90 16v1399h877v-170h-678zM575 160q80 0 153 12t128 44t88 85t33 135q0 86 -29.5 141.5t-85 88t-136.5 46t-183 13.5h-168v-559 q23 -2 53 -4q27 -2 63.5 -2h83.5z" />
<glyph unicode="&#x19f;" horiz-adv-x="1593" d="M119 711q0 182 54 321t147.5 232.5t217.5 140.5t263 47q137 0 259 -47t214 -140.5t146.5 -232.5t54.5 -321t-54.5 -321.5t-146.5 -233t-214 -140.5t-259 -47q-139 0 -263 47t-217.5 140.5t-147.5 233t-54 321.5zM797 143q100 0 182 35t141.5 99.5t95 155.5t44.5 206h-930 q18 -229 140 -362.5t327 -133.5zM797 1278q-205 0 -326 -129t-141 -356h930q-10 113 -46 201.5t-96.5 152t-141.5 97.5t-179 34z" />
<glyph unicode="&#x1b7;" horiz-adv-x="1161" d="M377 801q51 51 107.5 112.5t109.5 123t100 118.5t80 98h-657v166h909v-119q-31 -45 -78 -104t-104.5 -123.5t-118.5 -130t-119 -127.5q92 -10 175 -38.5t144.5 -79t97.5 -126t36 -176.5q0 -111 -42 -191.5t-117 -133t-181.5 -77t-235.5 -24.5q-78 0 -147.5 11.5 t-124.5 27t-96 33.5t-64 31l60 164q23 -12 60.5 -29t84.5 -31t104.5 -24.5t120.5 -10.5q174 0 271.5 59.5t97.5 198.5q0 82 -34 136.5t-92 87t-137 46t-171 13.5h-39v119z" />
<glyph unicode="&#x292;" horiz-adv-x="964" d="M246 451q45 51 96 112.5t99 124t89 118.5t70 99h-559v160h795v-111q-29 -47 -71 -107.5t-91 -127t-103.5 -133t-105.5 -123.5q86 -12 163 -39t133 -73t89 -116.5t33 -171.5q0 -111 -38 -193.5t-108.5 -138t-169 -83t-219.5 -27.5q-113 0 -208 18.5t-146 45.5l41 163 q47 -23 131 -41t180 -18q166 0 254 72.5t88 206.5q0 80 -35 130t-91 78.5t-130 39t-151 10.5h-35v125z" />
<glyph unicode="&#x2c6;" horiz-adv-x="770" d="M385 1575l279 -293l-80 -90l-199 180l-199 -180l-80 90z" />
<glyph unicode="&#x2da;" horiz-adv-x="770" d="M596 1386q0 -49 -17.5 -86.5t-46 -65.5t-66.5 -42t-81 -14t-81 14t-66.5 42t-46 65.5t-17.5 86.5t17.5 87t46 66t66.5 42t81 14t81 -14t66.5 -42t46 -66t17.5 -87zM494 1386q0 53 -32 83t-77 30t-77 -29.5t-32 -83.5q0 -53 32 -82.5t77 -29.5t77 29.5t32 82.5z" />
<glyph unicode="&#x2dc;" horiz-adv-x="770" d="M721 1456q-10 -25 -27.5 -57.5t-44 -60t-62.5 -47t-79 -19.5q-41 0 -77 14t-69 31q-35 16 -59 24.5t-47 8.5q-35 0 -64.5 -29t-46.5 -61l-98 49q8 25 26.5 57.5t45 60t62.5 47t79 19.5q41 0 77 -14.5t69 -30.5q35 -16 59 -24.5t47 -8.5q35 0 64.5 29t46.5 61z" />
<glyph unicode="&#x2dd;" horiz-adv-x="770" d="M424 1475l-252 -287l-98 74l235 327zM762 1475l-252 -287l-98 74l235 327z" />
<glyph unicode="&#x3a6;" horiz-adv-x="1769" d="M981 336q98 0 183 27.5t147.5 82t99.5 133t37 181.5q0 102 -37 181t-99.5 133t-147.5 82t-183 28v-848zM788 172q-131 0 -252.5 39t-215 113.5t-149.5 184t-56 251.5q0 141 56 249.5t149.5 183.5t215 114t252.5 41v163h193v-163q131 -2 252 -41t215 -114t150.5 -183.5 t56.5 -249.5t-56.5 -251t-150.5 -184.5t-215 -113.5t-252 -39v-172h-193v172zM788 1184q-98 0 -183 -28t-147.5 -82t-99 -133t-36.5 -181t36.5 -181t99 -133.5t147.5 -82t183 -27.5v848z" />
<glyph unicode="&#x400;" horiz-adv-x="1169" d="M176 0v1419h866v-170h-667v-422h594v-165h-594v-492h719v-170h-918zM533 1908l262 -315l-96 -86l-289 280z" />
<glyph unicode="&#x401;" horiz-adv-x="1169" d="M176 0v1419h866v-170h-667v-422h594v-165h-594v-492h719v-170h-918zM413 1581q-47 0 -82.5 33.5t-35.5 86.5t35.5 87t82.5 34t83 -33.5t36 -87.5q0 -53 -36 -86.5t-83 -33.5zM803 1581q-47 0 -83 33.5t-36 86.5t35.5 87t83.5 34q47 0 82.5 -33.5t35.5 -87.5 q0 -53 -35.5 -86.5t-82.5 -33.5z" />
<glyph unicode="&#x402;" horiz-adv-x="1538" d="M1460 426q0 -90 -27.5 -169t-80 -137.5t-129 -91t-176.5 -32.5q-29 0 -61 1t-56 5l6 158q12 -2 29.5 -3t46.5 -1q123 0 183 75.5t60 192.5q0 156 -96 227.5t-268 71.5q-72 0 -140.5 -10.5t-103.5 -18.5v-694h-198v1247h-416v172h1106v-172h-492v-389q18 6 48 12.5 t67 11.5t76 8t73 3q139 0 242.5 -33t171.5 -94t101.5 -147.5t33.5 -192.5z" />
<glyph unicode="&#x403;" horiz-adv-x="1042" d="M1010 1419v-172h-635v-1247h-199v1419h834zM840 1787l-289 -280l-96 86l262 315z" />
<glyph unicode="&#x404;" horiz-adv-x="1269" d="M784 -31q-150 0 -272.5 50.5t-209.5 145.5t-135 232.5t-48 313.5q0 174 48 312t136 233.5t211 145.5t272 50q86 0 159 -10t128 -25.5t91 -32t50 -26.5l-51 -158q-45 23 -132 50.5t-222 27.5q-109 0 -193 -34t-143 -95.5t-93 -147.5t-44 -192h622v-168h-626 q8 -113 42 -204t94 -156.5t145 -101.5t196 -36q135 0 224 29t134 51l52 -164q-14 -10 -51.5 -25.5t-93.5 -29.5t-130 -24.5t-160 -10.5z" />
<glyph unicode="&#x405;" horiz-adv-x="1089" d="M506 141q311 0 311 213q0 66 -27.5 112t-74.5 80t-107.5 58.5t-128.5 48.5q-78 27 -147.5 61t-120.5 80t-81 109.5t-30 153.5q0 186 127 290.5t351 104.5q129 0 234.5 -27.5t154.5 -60.5l-64 -162q-43 27 -128 52.5t-197 25.5q-57 0 -106.5 -12.5t-86.5 -37t-58.5 -62.5 t-21.5 -89q0 -57 22.5 -96t63.5 -68.5t95.5 -54t119.5 -49.5q92 -37 169 -74t133.5 -88t87 -121.5t30.5 -171.5q0 -186 -136 -286.5t-384 -100.5q-84 0 -154.5 11.5t-126 27t-95.5 32.5t-62 30l59 163q47 -27 143.5 -59.5t235.5 -32.5z" />
<glyph unicode="&#x406;" horiz-adv-x="550" d="M176 1419h199v-1419h-199v1419z" />
<glyph unicode="&#x407;" horiz-adv-x="550" d="M176 1419h199v-1419h-199v1419zM81 1581q-47 0 -82.5 33.5t-35.5 86.5t35.5 87t82.5 34t83 -33.5t36 -87.5q0 -53 -36 -86.5t-83 -33.5zM471 1581q-47 0 -83 33.5t-36 86.5t35.5 87t83.5 34q47 0 82.5 -33.5t35.5 -87.5q0 -53 -35.5 -86.5t-82.5 -33.5z" />
<glyph unicode="&#x408;" horiz-adv-x="1024" d="M858 457q0 -102 -21.5 -190.5t-75.5 -155t-145.5 -104.5t-228.5 -38q-70 0 -128 11.5t-105.5 29t-82 37t-55.5 37.5l78 158q43 -31 111.5 -65t171.5 -34q147 0 214.5 75t67.5 257v944h199v-962z" />
<glyph unicode="&#x409;" horiz-adv-x="2136" d="M1073 1249h-411q-8 -229 -20.5 -431t-70.5 -386q-29 -92 -70.5 -173t-104 -141.5t-147.5 -97t-200 -40.5l-22 172q143 16 222 89.5t130 225.5q57 174 72.5 414.5t15.5 537.5h805v-516q37 4 79 5t79 1q631 0 630 -465q0 -115 -43 -200.5t-122.5 -143t-194.5 -86 t-258 -28.5q-86 0 -184.5 7t-184.5 27v1229zM1851 444q0 86 -30.5 143.5t-88 90.5t-136 46t-173.5 13h-74.5t-76.5 -4v-567q35 -4 83 -5t103 -1q76 0 147.5 12t126 45t87 87t32.5 140z" />
<glyph unicode="&#x40a;" horiz-adv-x="2101" d="M1237 893q37 4 79 6t79 2q315 0 472.5 -110.5t157.5 -346.5q0 -115 -43 -200.5t-122.5 -143t-194.5 -86t-258 -28.5q-86 0 -184.5 7t-184.5 27v682h-663v-702h-199v1419h199v-547h663v547h199v-526zM1423 160q76 0 147.5 12t126 45t87.5 87t33 140t-31 141.5t-88.5 87.5 t-136 44t-172.5 12q-35 0 -75 -1t-77 -5v-557q35 -4 83 -5t103 -1z" />
<glyph unicode="&#x40b;" horiz-adv-x="1533" d="M1139 1419v-172h-492v-389q18 6 48 12.5t67 11.5t76 8t73 3q139 0 232.5 -33t150 -94t80 -147.5t23.5 -192.5v-426h-197v424q0 152 -69.5 224.5t-239.5 72.5q-72 0 -140.5 -10.5t-103.5 -18.5v-692h-198v1247h-416v172h1106z" />
<glyph unicode="&#x40c;" horiz-adv-x="1288" d="M1227 1419q-63 -70 -143 -154.5t-167.5 -174t-173.5 -175.5t-161 -159q88 -61 186 -151.5t192.5 -193t177.5 -209t138 -202.5h-234q-61 96 -141 193.5t-169 186.5t-180 165t-177 129v-674h-199v1419h199v-626q72 68 157.5 152.5t169.5 170.5t159 165t126 138h240z M913 1787l-289 -280l-96 86l262 315z" />
<glyph unicode="&#x40d;" horiz-adv-x="1490" d="M176 0v1419h195v-1050q66 109 161 248t202.5 283t217 280.5t205.5 238.5h158v-1419h-195v1108q-57 -66 -124.5 -152t-139.5 -183t-144.5 -201.5t-140 -206t-126 -195.5t-103.5 -170h-166zM623 1908l262 -315l-96 -86l-289 280z" />
<glyph unicode="&#x40e;" horiz-adv-x="1202" d="M807 434q-41 -94 -85 -177t-104.5 -144.5t-145.5 -96t-210 -34.5q-25 0 -51.5 3t-51 8t-43 11t-26.5 12l35 168q27 -10 64.5 -20t78.5 -10q61 0 107.5 15t83.5 43t65.5 67.5t55.5 89.5q-90 145 -170 289.5t-147.5 279.5t-123 257t-98.5 224h225q68 -178 173.5 -397 t234.5 -459q82 186 156.5 410.5t140.5 445.5h215q-47 -147 -94.5 -277t-94.5 -250t-94 -233.5t-96 -224.5zM629 1556q-129 0 -210 65.5t-97 182.5l145 39q16 -66 55.5 -107t106.5 -41q68 0 107 41t55 107l143 -39q-16 -117 -96 -182.5t-209 -65.5z" />
<glyph unicode="&#x40f;" horiz-adv-x="1431" d="M176 0v1419h199v-1249h682v1249h198v-1419h-444v-379h-188v379h-447z" />
<glyph unicode="&#x410;" horiz-adv-x="1357" d="M1124 0q-35 92 -65.5 181t-63.5 181h-643l-129 -362h-207q82 225 154 416.5t140.5 363.5t136 329t141.5 310h182q74 -154 141.5 -310.5t136 -328.5t140.5 -363.5t153 -416.5h-217zM938 526q-66 178 -130.5 345t-133.5 321q-72 -154 -136.5 -320.5t-127.5 -345.5h528z" />
<glyph unicode="&#x411;" horiz-adv-x="1267" d="M375 1249v-360h176q150 0 267.5 -24.5t199.5 -79t125 -139.5t43 -208q0 -225 -164 -338.5t-463 -113.5q-43 0 -93 2t-100.5 6t-99.5 10t-90 16v1399h877v-170h-678zM575 160q80 0 153 12t128 44t88 85t33 135q0 86 -29.5 141.5t-85 88t-136.5 46t-183 13.5h-168v-559 q23 -2 53 -4q27 -2 63.5 -2h83.5z" />
<glyph unicode="&#x412;" horiz-adv-x="1316" d="M559 -12q-43 0 -93 2t-100.5 6t-99.5 10t-90 17v1376q41 10 90 16t99.5 10.5t99.5 6.5t92 2q123 0 230.5 -18.5t186.5 -62.5t124 -116t45 -176q0 -117 -55.5 -191.5t-147.5 -111.5q125 -37 198.5 -117t73.5 -225q0 -213 -156.5 -320.5t-496.5 -107.5zM373 662v-500 q23 -2 53 -4q27 -2 62.5 -3t82.5 -1q88 0 167 11t138.5 39.5t95.5 80t36 129.5q0 70 -27 118t-77 76.5t-119.5 41t-155.5 12.5h-256zM373 821h209q74 0 139 10.5t113.5 37t76 69.5t27.5 109q0 61 -28.5 103t-79 67.5t-118 38t-143.5 12.5t-118.5 -2t-77.5 -6v-439z" />
<glyph unicode="&#x413;" horiz-adv-x="1042" d="M1010 1419v-172h-635v-1247h-199v1419h834z" />
<glyph unicode="&#x414;" horiz-adv-x="1480" d="M221 0v-379h-188v549h149q104 119 160.5 263.5t82.5 305t31 332.5t7 348h803v-1249h178v-549h-189v379h-1034zM657 1249q-6 -135 -13 -275t-30.5 -278.5t-68.5 -271.5t-127 -254h649v1079h-410z" />
<glyph unicode="&#x415;" horiz-adv-x="1169" d="M176 0v1419h866v-170h-667v-422h594v-165h-594v-492h719v-170h-918z" />
<glyph unicode="&#x416;" horiz-adv-x="1853" d="M635 754q-61 72 -136 158.5t-150 176t-145.5 175.5t-125.5 155h231q45 -57 107.5 -135t133.5 -163t143.5 -172t137.5 -163v633h191v-633q63 76 136 163t143.5 173t134 163t108.5 134h230q-55 -70 -126 -155.5t-146 -175t-148.5 -175.5t-134.5 -157q82 -74 163.5 -165 t158.5 -189.5t144.5 -201t120.5 -200.5h-225q-55 94 -125 189.5t-143.5 184.5t-148 166.5t-142.5 137.5v-678h-191v678q-68 -59 -143.5 -137t-149 -167t-142 -184.5t-124.5 -189.5h-223q51 98 119 200.5t144.5 201t159.5 188.5t163 164z" />
<glyph unicode="&#x417;" horiz-adv-x="1171" d="M297 829h106q68 0 137.5 10.5t127 38t94.5 74.5t37 119q0 92 -79 150.5t-210 58.5q-113 0 -203 -25.5t-133 -52.5l-63 162q25 16 66.5 31.5t94 28t113.5 19.5t127 7q106 0 196.5 -22.5t156 -68.5t102.5 -117t37 -167q0 -98 -62.5 -184t-183.5 -125q61 -16 117.5 -46 t98.5 -76t67.5 -107.5t25.5 -143.5q0 -113 -42 -193.5t-116.5 -132t-181 -75t-235.5 -23.5q-78 0 -148 11.5t-125 27t-96 33.5t-64 31l60 164q23 -12 60.5 -29t84.5 -31t104.5 -24.5t120.5 -10.5q174 0 271.5 58.5t97.5 197.5q0 82 -33.5 134.5t-92 83t-137.5 42t-171 11.5 h-127v161z" />
<glyph unicode="&#x418;" horiz-adv-x="1490" d="M176 0v1419h195v-1050q66 109 161 248t202.5 283t217 280.5t205.5 238.5h158v-1419h-195v1108q-57 -66 -124.5 -152t-139.5 -183t-144.5 -201.5t-140 -206t-126 -195.5t-103.5 -170h-166z" />
<glyph unicode="&#x419;" horiz-adv-x="1490" d="M176 0v1419h195v-1050q66 109 161 248t202.5 283t217 280.5t205.5 238.5h158v-1419h-195v1108q-57 -66 -124.5 -152t-139.5 -183t-144.5 -201.5t-140 -206t-126 -195.5t-103.5 -170h-166zM747 1556q-129 0 -210 65.5t-97 182.5l145 39q16 -66 55.5 -107t106.5 -41 q68 0 107 41t55 107l143 -39q-16 -117 -96 -182.5t-209 -65.5z" />
<glyph unicode="&#x41a;" horiz-adv-x="1288" d="M1227 1419q-63 -70 -143 -154.5t-167.5 -174t-173.5 -175.5t-161 -159q88 -61 186 -151.5t192.5 -193t177.5 -209t138 -202.5h-234q-61 96 -141 193.5t-169 186.5t-180 165t-177 129v-674h-199v1419h199v-626q72 68 157.5 152.5t169.5 170.5t159 165t126 138h240z" />
<glyph unicode="&#x41b;" horiz-adv-x="1447" d="M662 1249q-4 -115 -8.5 -222t-12.5 -208.5t-24.5 -198t-45.5 -188.5t-70.5 -173t-104 -141.5t-147.5 -97t-200 -40.5l-22 172q143 16 222 89.5t130 225.5q57 172 72.5 414.5t15.5 537.5h805v-1419h-199v1249h-411z" />
<glyph unicode="&#x41c;" horiz-adv-x="1783" d="M813 197q-20 49 -54 124.5t-73 163.5t-83 181.5t-83 176.5t-72.5 148.5t-54.5 100.5q-23 -242 -37 -523.5t-24 -568.5h-195q8 184 18.5 371.5t24 369t28.5 353.5t34 325h174q55 -90 118.5 -213t127 -257t123 -268t108.5 -245q49 111 108.5 245t123 268t127 257t118.5 213 h174q70 -686 105 -1419h-195q-10 287 -24.5 568.5t-36.5 523.5q-20 -35 -54 -100.5t-73 -148.5t-83 -176.5t-83 -181.5t-73 -163.5t-54 -124.5h-160z" />
<glyph unicode="&#x41d;" horiz-adv-x="1443" d="M1069 1419h199v-1419h-199v655h-694v-655h-199v1419h199v-592h694v592z" />
<glyph unicode="&#x41e;" horiz-adv-x="1593" d="M119 711q0 182 54 321t147.5 232.5t217.5 140.5t263 47q137 0 259 -47t214 -140.5t146.5 -232.5t54.5 -321t-54.5 -321.5t-146.5 -233t-214 -140.5t-259 -47q-139 0 -263 47t-217.5 140.5t-147.5 233t-54 321.5zM328 711q0 -129 32.5 -234.5t93 -179.5t147.5 -114 t196 -40t194.5 40t146 114t93.5 179.5t33 234.5t-33 234.5t-93.5 179t-146.5 113.5t-194 40q-109 0 -196 -40t-147.5 -113.5t-93 -179t-32.5 -234.5z" />
<glyph unicode="&#x41f;" horiz-adv-x="1431" d="M1255 1419v-1419h-198v1249h-682v-1249h-199v1419h1079z" />
<glyph unicode="&#x420;" horiz-adv-x="1245" d="M553 1434q299 0 460 -114t161 -339q0 -123 -44.5 -210t-127 -141.5t-201.5 -79t-269 -24.5h-157v-526h-199v1399q84 20 187.5 27.5t189.5 7.5zM569 1260q-127 0 -194 -7v-557h149q102 0 184.5 13.5t138.5 45t87 87t31 141.5q0 82 -32 135t-86 85t-126 44.5t-152 12.5z " />
<glyph unicode="&#x421;" horiz-adv-x="1269" d="M786 -31q-150 0 -272.5 49.5t-210.5 143.5t-136 232t-48 317q0 178 54 316t146.5 232.5t215 143.5t262.5 49q88 0 158.5 -12.5t122.5 -28.5t85 -32.5t45 -24.5l-57 -164q-18 12 -53 26.5t-79 29t-96.5 23.5t-105.5 9q-113 0 -203 -39t-153.5 -112.5t-97 -179 t-33.5 -236.5q0 -127 29.5 -231.5t89 -179.5t148.5 -116t208 -41q137 0 227 29t135 51l52 -164q-14 -10 -51.5 -25.5t-92.5 -29.5t-129 -24.5t-160 -10.5z" />
<glyph unicode="&#x422;" horiz-adv-x="1157" d="M1124 1419v-172h-446v-1247h-199v1247h-446v172h1091z" />
<glyph unicode="&#x423;" horiz-adv-x="1202" d="M807 434q-41 -94 -85 -177t-104.5 -144.5t-145.5 -96t-210 -34.5q-25 0 -51.5 3t-51 8t-43 11t-26.5 12l35 168q27 -10 64.5 -20t78.5 -10q61 0 107.5 15t83.5 43t65.5 67.5t55.5 89.5q-90 145 -170 289.5t-147.5 279.5t-123 257t-98.5 224h225q68 -178 173.5 -397 t234.5 -459q82 186 156.5 410.5t140.5 445.5h215q-47 -147 -94.5 -277t-94.5 -250t-94 -233.5t-96 -224.5z" />
<glyph unicode="&#x424;" horiz-adv-x="1769" d="M981 336q98 0 183 27.5t147.5 82t99.5 133t37 181.5q0 102 -37 181t-99.5 133t-147.5 82t-183 28v-848zM788 172q-131 0 -252.5 39t-215 113.5t-149.5 184t-56 251.5q0 141 56 249.5t149.5 183.5t215 114t252.5 41v163h193v-163q131 -2 252 -41t215 -114t150.5 -183.5 t56.5 -249.5t-56.5 -251t-150.5 -184.5t-215 -113.5t-252 -39v-172h-193v172zM788 1184q-98 0 -183 -28t-147.5 -82t-99 -133t-36.5 -181t36.5 -181t99 -133.5t147.5 -82t183 -27.5v848z" />
<glyph unicode="&#x425;" horiz-adv-x="1292" d="M1028 0q-31 61 -74 136t-94 156t-106.5 162t-106.5 152q-51 -72 -106.5 -152.5t-105.5 -161.5t-94 -156t-75 -136h-219q92 180 214 366.5t259 383.5l-454 669h229l350 -528l346 528h228l-447 -661q139 -199 262 -387.5t217 -370.5h-223z" />
<glyph unicode="&#x426;" horiz-adv-x="1470" d="M1255 170h179v-549h-189v379h-1069v1419h199v-1249h682v1249h198v-1249z" />
<glyph unicode="&#x427;" horiz-adv-x="1292" d="M315 1010q0 -86 15.5 -150.5t53.5 -106.5t102.5 -62.5t162.5 -20.5q39 0 79 3t77 7t65.5 10l47.5 10v719h198v-1419h-198v528q-39 -10 -120 -20t-173 -10q-156 0 -254.5 35.5t-154.5 102t-76.5 162t-20.5 212.5v409h196v-409z" />
<glyph unicode="&#x428;" horiz-adv-x="2013" d="M176 0v1419h199v-1249h532v1249h199v-1249h532v1249h199v-1419h-1661z" />
<glyph unicode="&#x429;" horiz-adv-x="2052" d="M176 0v1419h199v-1249h532v1249h199v-1249h532v1249h199v-1249h178v-549h-188v379h-1651z" />
<glyph unicode="&#x42a;" horiz-adv-x="1486" d="M1411 444q0 -229 -166 -343.5t-467 -114.5q-86 0 -188.5 7t-188.5 27v1229h-368v170h567v-516q41 4 83 5t83 1q645 0 645 -465zM1202 444q0 86 -32.5 143.5t-91 90.5t-139.5 46t-179 13h-79t-81 -4v-567q37 -4 83 -5t112 -1q80 0 153.5 12t130 45t90 87t33.5 140z" />
<glyph unicode="&#x42b;" horiz-adv-x="1753" d="M954 444q0 86 -30.5 143.5t-88 90.5t-136 46t-173.5 13h-74.5t-76.5 -4v-567q70 -6 104.5 -6h81.5q76 0 147.5 12t126 45t87 87t32.5 140zM1163 444q0 -115 -43 -200.5t-122.5 -143t-194.5 -86t-258 -28.5q-86 0 -184.5 7t-184.5 27v1399h199v-516q37 4 79 5t78 1 q631 0 631 -465zM1378 1419h199v-1419h-199v1419z" />
<glyph unicode="&#x42c;" horiz-adv-x="1261" d="M1186 444q0 -229 -166 -343.5t-467 -114.5q-86 0 -188.5 7t-188.5 27v1399h199v-516q41 4 83 5t83 1q645 0 645 -465zM977 444q0 86 -33 143.5t-91 90.5t-139 46t-179 13h-79t-81 -4v-567q37 -4 83 -5t111 -1q80 0 154 12t130 45t90 87t34 140z" />
<glyph unicode="&#x42d;" horiz-adv-x="1269" d="M1151 711q0 -174 -48 -312.5t-136 -233.5t-210 -145.5t-272 -50.5q-86 0 -159.5 10.5t-130 24.5t-93 29.5t-51.5 25.5l51 164q45 -23 134.5 -51.5t224.5 -28.5q111 0 195.5 36t145 101.5t94.5 156.5t42 204h-627v168h623q-10 106 -44 192t-93.5 147.5t-143.5 95.5 t-192 34q-135 0 -222 -27.5t-133 -50.5l-51 158q14 10 50 26.5t91.5 32t128 25.5t158.5 10q150 0 273 -50t211 -145.5t136 -232.5t48 -313z" />
<glyph unicode="&#x42e;" horiz-adv-x="2109" d="M1341 1450q131 0 249 -47t207 -140.5t141.5 -231.5t52.5 -320t-51.5 -320.5t-140.5 -231.5t-206.5 -140.5t-251.5 -47.5q-129 0 -243.5 44t-201.5 130t-141.5 214t-62.5 298h-317v-657h-199v1419h199v-592h323q16 154 73.5 270.5t143.5 194.5t195.5 118t230.5 40z M1341 145q104 0 186.5 40t138.5 114t86 178.5t30 233.5t-30 233.5t-86 178t-138 113.5t-187 40q-104 0 -186 -40t-139.5 -113.5t-87 -178t-29.5 -233.5t29.5 -233.5t87 -178.5t139.5 -114t186 -40z" />
<glyph unicode="&#x42f;" horiz-adv-x="1300" d="M727 1260q-78 0 -148.5 -12.5t-126 -43t-88 -84t-32.5 -133.5q0 -152 97 -210t292 -58h205v534q-23 0 -54 2q-27 2 -62.5 3.5t-82.5 1.5zM743 1434q43 0 92.5 -2t99.5 -6.5t99 -10.5t90 -16v-1399h-198v555h-170q-29 0 -60.5 1t-85.5 7q-37 -49 -80 -114.5t-86 -139 t-85 -153.5t-76 -156h-209q33 80 78 166t93 164t92 144.5t77 109.5q-47 14 -98.5 40.5t-94.5 73.5t-70.5 118t-27.5 169q0 111 43 195t124 140t195.5 85t257.5 29z" />
<glyph unicode="&#x430;" horiz-adv-x="1069" d="M524 137q68 0 120 3t87 12v317q-20 10 -66.5 17.5t-111.5 7.5q-43 0 -91 -6.5t-88 -26t-66.5 -53t-26.5 -89.5q0 -102 65 -142t178 -40zM508 1092q115 0 193.5 -30t127 -84t69 -129t20.5 -165v-666q-25 -4 -69 -11t-99.5 -13t-120 -11.5t-127.5 -5.5q-90 0 -166 18.5 t-131 58.5t-86 105.5t-31 157.5q0 88 36 151.5t97.5 102.5t143 57.5t172.5 18.5q29 0 59.5 -3t58 -8t48 -9t28.5 -6v53q0 47 -10 93t-37 82t-73 57.5t-119 21.5q-94 0 -165 -13.5t-106 -27.5l-22 157q37 16 123 32t186 16z" />
<glyph unicode="&#x431;" horiz-adv-x="1218" d="M336 942q63 51 148 79t163 28q229 0 347 -140.5t118 -390.5q0 -106 -28.5 -204.5t-89 -174.5t-152.5 -121t-219 -45q-145 0 -241.5 53.5t-153 145.5t-79 215t-22.5 260q0 178 25.5 332t93 270.5t187.5 193.5t308 103q55 8 97.5 13.5t74 9.5t58 9t55.5 11l21 -172 q-14 -4 -30 -6t-43.5 -6t-73.5 -10t-120 -15q-203 -23 -311 -123t-133 -315zM324 616q0 -96 13 -182t47 -151.5t91 -103.5t148 -38q78 0 133 30t90 81t51 119.5t16 146.5q0 70 -13 135.5t-48 116.5t-93.5 82t-146.5 31q-86 0 -164.5 -37t-121.5 -90q-2 -23 -2 -64v-76z" />
<glyph unicode="&#x432;" horiz-adv-x="1122" d="M350 143q12 -2 35 -4t51.5 -3t60 -2t60.5 -1q59 0 113.5 8.5t94.5 28.5t63.5 54t23.5 87q0 51 -21.5 85t-58.5 54.5t-87 28.5t-107 8h-228v-344zM553 629q55 0 101 7t80 25.5t53.5 49t19.5 77.5q0 49 -24.5 78t-64.5 44.5t-90 20.5t-102 5q-47 0 -95 -2t-81 -4v-301h203z M549 -18q-121 0 -223.5 11t-161.5 25v1037q59 14 161.5 25.5t223.5 11.5q84 0 164 -14.5t141 -48.5t99 -92t38 -144q0 -78 -39 -133.5t-104 -86.5q88 -31 140 -91t52 -169q0 -96 -37.5 -159.5t-104.5 -102.5t-157 -54t-192 -15z" />
<glyph unicode="&#x433;" horiz-adv-x="856" d="M823 905h-469v-905h-190v1065h659v-160z" />
<glyph unicode="&#x434;" horiz-adv-x="1234" d="M33 156h114q68 98 108 202.5t60.5 216t26.5 233.5t8 257h699v-909h143v-453h-180v297h-799v-297h-180v453zM858 156v749h-334q-2 -96 -10 -193.5t-26.5 -192.5t-52.5 -186t-85 -177h508z" />
<glyph unicode="&#x435;" horiz-adv-x="1144" d="M104 530q0 141 41 247t109 175.5t156 104.5t180 35q215 0 329.5 -134.5t114.5 -408.5v-31.5t-2 -36.5h-729q12 -166 96 -252t263 -86q100 0 168.5 17.5t103.5 34.5l27 -160q-35 -18 -122 -39t-198 -21q-139 0 -240.5 42t-167 116t-97.5 175t-32 222zM836 635 q2 129 -64.5 212t-183.5 83q-66 0 -116 -25.5t-85 -66.5t-54.5 -94.5t-25.5 -108.5h529z" />
<glyph unicode="&#x436;" horiz-adv-x="1562" d="M1477 1065q-41 -51 -92.5 -111.5t-106.5 -125t-111.5 -128t-107.5 -120.5q61 -59 126.5 -129t128 -145t120 -153.5t100.5 -152.5h-213q-43 68 -99.5 142.5t-117 144t-120.5 130t-112 99.5v-516h-182v516q-51 -39 -111.5 -99.5t-121 -130t-116.5 -144t-99 -142.5h-211 q43 74 99 151.5t118.5 152.5t128 144.5t127.5 129.5q-51 57 -107.5 120.5t-112 128t-106.5 125t-94 113.5h211q74 -92 170 -204.5t225 -260.5v465h182v-465q129 147 225.5 260t170.5 205h209z" />
<glyph unicode="&#x437;" horiz-adv-x="1001" d="M434 1092q92 0 172 -18.5t137.5 -55.5t90 -92.5t32.5 -128.5q0 -47 -16 -86t-41 -70t-54.5 -52.5t-56.5 -29.5q94 -29 148.5 -101.5t54.5 -183.5q0 -152 -123 -225.5t-334 -73.5q-129 0 -222 20.5t-132 39.5l33 162q33 -12 118 -34t203 -22q129 0 197 40t68 120 q0 57 -26 93t-64.5 54.5t-84 24.5t-83.5 6h-179v152h172q37 0 77 5t74 21.5t56.5 46t22.5 78.5q0 39 -19.5 67t-52.5 46t-77 27.5t-91 9.5q-37 0 -80 -6t-84 -15.5t-73.5 -19.5t-46.5 -19l-35 164q16 6 51 16.5t79 18.5t93 14.5t96 6.5z" />
<glyph unicode="&#x438;" horiz-adv-x="1222" d="M1059 1065v-1065h-185v811q-61 -78 -134.5 -182.5t-147.5 -216t-141.5 -220t-116.5 -192.5h-170v1065h184v-766q53 88 121 193.5t140.5 209t145 198.5t136.5 165h168z" />
<glyph unicode="&#x439;" horiz-adv-x="1222" d="M1059 1065v-1065h-185v811q-61 -78 -134.5 -182.5t-147.5 -216t-141.5 -220t-116.5 -192.5h-170v1065h184v-766q53 88 121 193.5t140.5 209t145 198.5t136.5 165h168zM612 1237q-129 0 -210 65.5t-97 182.5l145 39q16 -66 55.5 -107t106.5 -41q68 0 107 41t55 107 l143 -39q-16 -117 -96 -182.5t-209 -65.5z" />
<glyph unicode="&#x43a;" horiz-adv-x="1099" d="M553 580q63 -45 137 -114t144.5 -148.5t132 -162.5t104.5 -155h-225q-45 70 -105.5 142.5t-126 140t-133 125t-127.5 96.5v-504h-190v1065h190v-457q49 47 112.5 109.5t128 127t120 123t90.5 97.5h221q-45 -49 -105.5 -111.5t-125 -128t-128 -130t-114.5 -115.5z" />
<glyph unicode="&#x43b;" horiz-adv-x="1224" d="M535 905q0 -68 -3.5 -144.5t-11.5 -153.5t-22.5 -151.5t-36.5 -140.5q-23 -66 -56.5 -123t-83 -101t-115 -73.5t-153.5 -37.5l-26 159q100 20 158.5 75.5t93.5 135.5q31 70 45 158t20 183t7 191.5t1 182.5h709v-1065h-191v905h-335z" />
<glyph unicode="&#x43c;" horiz-adv-x="1497" d="M367 784q-20 -203 -30.5 -404.5t-17.5 -379.5h-182q4 125 12.5 261t18.5 274.5t22.5 272.5t26.5 257h174q66 -106 154 -291.5t203 -427.5q115 242 202.5 427t153.5 292h176q14 -123 26.5 -257t22.5 -272.5t18.5 -274.5t12.5 -261h-189q-6 178 -16 380t-31 404 q-33 -63 -75.5 -152t-84.5 -181.5t-79 -176.5t-58 -133h-159q-23 51 -61 135t-80 177.5t-84.5 182.5t-75.5 148z" />
<glyph unicode="&#x43d;" horiz-adv-x="1200" d="M1036 0h-190v471h-492v-471h-190v1065h190v-434h492v434h190v-1065z" />
<glyph unicode="&#x43e;" horiz-adv-x="1208" d="M1104 532q0 -127 -37 -229t-103.5 -176t-158.5 -114t-201 -40t-201 40t-158.5 114t-103.5 176.5t-37 228.5q0 125 37 228.5t103.5 177.5t159 114t200.5 40q109 0 201 -40t158.5 -114t103.5 -177.5t37 -228.5zM905 532q0 180 -81 286t-220 106t-220 -105.5t-81 -286.5 q0 -180 81 -285.5t220 -105.5t220 105.5t81 285.5z" />
<glyph unicode="&#x43f;" horiz-adv-x="1183" d="M1020 0h-191v905h-475v-905h-190v1065h856v-1065z" />
<glyph unicode="&#x440;" horiz-adv-x="1206" d="M903 530q0 186 -92 287t-246 101q-86 0 -134 -6.5t-77 -14.5v-672q35 -29 100.5 -55.5t143.5 -26.5q82 0 140.5 30t95 82t53 122.5t16.5 152.5zM1102 530q0 -121 -32 -223t-93.5 -176t-150.5 -115t-203 -41q-92 0 -163 25t-106 47v-426h-190v1411q68 16 169 35.5 t234 19.5q123 0 221.5 -38.5t168 -110.5t107.5 -175.5t38 -232.5z" />
<glyph unicode="&#x441;" horiz-adv-x="952" d="M627 -25q-129 0 -226.5 41t-164 115t-99.5 175.5t-33 223.5q0 123 36 225.5t101.5 177.5t161 117t211.5 42q72 0 143.5 -12.5t137.5 -39.5l-43 -161q-43 20 -99.5 32.5t-119.5 12.5q-160 0 -245 -100.5t-85 -293.5q0 -86 19.5 -157.5t61.5 -122.5t107.5 -79t159.5 -28 q76 0 137.5 14.5t96.5 30.5l26 -159q-16 -10 -46.5 -19.5t-69.5 -16.5t-83 -12.5t-85 -5.5z" />
<glyph unicode="&#x442;" horiz-adv-x="948" d="M915 1065v-160h-346v-905h-190v905h-346v160h882z" />
<glyph unicode="&#x443;" horiz-adv-x="1017" d="M39 -199q23 -10 58.5 -19t70.5 -9q113 0 176.5 50t114.5 163q-129 246 -241 521t-185 558h205q23 -92 54.5 -198.5t70 -219t84 -225.5t94.5 -217q78 215 135 426t108 434h197q-74 -301 -164 -578.5t-194 -519.5q-41 -92 -85 -158.5t-97.5 -109.5t-120 -63.5t-150.5 -20.5 q-23 0 -47.5 3t-48 8t-43 11.5t-27.5 10.5z" />
<glyph unicode="&#x444;" horiz-adv-x="1568" d="M297 532q0 -90 29.5 -159.5t83 -117.5t126 -73.5t156.5 -27.5v757q-84 -2 -156.5 -28.5t-126 -74.5t-83 -118t-29.5 -158zM877 154q84 2 156.5 27.5t125.5 73.5t83 117.5t30 159.5q0 88 -30 158t-83 118t-125.5 74.5t-156.5 28.5v-757zM877 -379h-185v373 q-121 2 -227.5 39t-187 105.5t-128 168t-47.5 225.5q0 127 47.5 226.5t128 168t187 105.5t227.5 39v485l185 33v-518q119 -2 226 -39t188 -105.5t128 -168t47 -226.5t-47 -226t-128 -167.5t-188.5 -105.5t-225.5 -39v-373z" />
<glyph unicode="&#x445;" horiz-adv-x="1046" d="M801 0q-23 45 -55.5 100.5t-71.5 113.5t-80 115.5t-80 108.5q-39 -51 -80 -109.5t-79 -116.5t-70.5 -113.5t-55.5 -98.5h-196q72 139 171 283.5t197 275.5l-352 506h215l254 -373l256 373h203l-344 -494q98 -133 201.5 -281.5t175.5 -289.5h-209z" />
<glyph unicode="&#x446;" horiz-adv-x="1200" d="M1014 158h143v-455h-180v297h-813v1065h190v-907h469v907h191v-907z" />
<glyph unicode="&#x447;" horiz-adv-x="1091" d="M285 1065v-313q0 -121 61.5 -169t167.5 -48q78 0 130 8t93 18v504h191v-1065h-191v414q-16 -4 -42.5 -10.5t-60.5 -11.5t-71 -9t-71 -4q-88 0 -161 18.5t-125 61.5t-82 113.5t-30 177.5v315h191z" />
<glyph unicode="&#x448;" horiz-adv-x="1685" d="M164 0v1065h190v-907h394v907h190v-907h393v907h191v-1065h-1358z" />
<glyph unicode="&#x449;" horiz-adv-x="1708" d="M164 0v1065h190v-907h394v907h190v-907h393v907h191v-907h143v-455h-180v297h-1321z" />
<glyph unicode="&#x44a;" horiz-adv-x="1224" d="M307 905h-274v160h465v-408q16 4 43.5 8.5t59.5 8.5t66.5 6t65.5 2q88 0 166 -19.5t136.5 -61.5t93 -108.5t34.5 -158.5q0 -96 -32.5 -164t-94 -111t-146.5 -62.5t-190 -19.5q-102 0 -200.5 11.5t-192.5 34.5v882zM711 133q121 0 190.5 47t69.5 152q0 51 -20.5 88 t-56.5 60.5t-83 34.5t-100 11q-55 0 -113.5 -3t-99.5 -13v-367q12 -2 36.5 -4t54 -3t61.5 -2t61 -1z" />
<glyph unicode="&#x44b;" horiz-adv-x="1552" d="M555 526q-55 0 -107.5 -3t-93.5 -13v-367q12 -2 36 -4t51.5 -3t56 -2t51.5 -1q125 0 192.5 47t67.5 152q0 51 -21.5 88t-57.5 60.5t-81 34.5t-94 11zM164 1065h190v-408q35 8 101.5 16.5t128.5 8.5q84 0 159.5 -19.5t133 -61.5t91 -108.5t33.5 -158.5q0 -96 -32.5 -164 t-92 -111t-143.5 -62.5t-184 -19.5q-96 0 -194.5 11.5t-190.5 34.5v1042zM1389 0h-191v1065h191v-1065z" />
<glyph unicode="&#x44c;" horiz-adv-x="1081" d="M567 133q121 0 190.5 47t69.5 152q0 51 -20.5 88t-56 60.5t-82.5 34.5t-101 11q-55 0 -113.5 -3t-99.5 -13v-367q12 -2 37 -4t54.5 -3t61 -2t60.5 -1zM164 23v1042h190v-408q16 4 44 8.5t59.5 8.5t66.5 6t66 2q88 0 166 -19.5t136 -61.5t93 -108.5t35 -158.5 q0 -96 -33 -164t-94.5 -111t-146 -62.5t-189.5 -19.5q-102 0 -200.5 11.5t-192.5 34.5z" />
<glyph unicode="&#x44d;" horiz-adv-x="1019" d="M915 537q0 -123 -31.5 -225.5t-97 -177.5t-164 -117t-229.5 -42q-115 0 -203 18.5t-120 37.5l26 162q18 -10 49 -18.5t69 -15.5t79 -11.5t82 -4.5q166 0 249 87t95 241h-434v154h430q-18 137 -97 218t-233 81q-84 0 -147.5 -13.5t-98.5 -29.5l-41 153q20 10 54 20.5 t74 18.5t83 13.5t84 5.5q129 0 226.5 -43t163 -119t99 -176t33.5 -217z" />
<glyph unicode="&#x44e;" horiz-adv-x="1660" d="M354 625h234q12 106 54 192t105.5 147.5t145.5 94.5t176 33q104 0 193.5 -40t155 -114t102 -177.5t36.5 -228.5q0 -127 -36.5 -229t-102 -176t-154.5 -114t-194 -40q-98 0 -183 36t-148.5 100.5t-103.5 156.5t-48 205h-232v-471h-190v1065h190v-440zM1360 532 q0 180 -79 286t-212 106t-212 -105.5t-79 -286.5q0 -180 79 -285.5t212 -105.5t212 105.5t79 285.5z" />
<glyph unicode="&#x44f;" horiz-adv-x="1122" d="M604 414q-31 0 -59.5 1t-55.5 3q-66 -98 -126 -210t-107 -208h-193q25 59 58 121.5t66.5 122t68.5 113t66 96.5q-57 20 -94.5 49.5t-60 66.5t-31.5 79t-9 85q0 90 34 157.5t93 112t140 67t177 22.5q135 0 229.5 -12.5t157.5 -28.5v-1051h-188v414h-166zM770 924 q-23 4 -75 8t-120 4q-117 0 -188.5 -48t-71.5 -153q0 -102 74 -141t191 -39h190v369z" />
<glyph unicode="&#x450;" horiz-adv-x="1144" d="M104 530q0 141 41 247t109 175.5t156 104.5t180 35q215 0 329.5 -134.5t114.5 -408.5v-31.5t-2 -36.5h-729q12 -166 96 -252t263 -86q100 0 168.5 17.5t103.5 34.5l27 -160q-35 -18 -122 -39t-198 -21q-139 0 -240.5 42t-167 116t-97.5 175t-32 222zM836 635 q2 129 -64.5 212t-183.5 83q-66 0 -116 -25.5t-85 -66.5t-54.5 -94.5t-25.5 -108.5h529zM463 1589l262 -315l-96 -86l-289 280z" />
<glyph unicode="&#x451;" horiz-adv-x="1144" d="M104 530q0 141 41 247t109 175.5t156 104.5t180 35q215 0 329.5 -134.5t114.5 -408.5v-31.5t-2 -36.5h-729q12 -166 96 -252t263 -86q100 0 168.5 17.5t103.5 34.5l27 -160q-35 -18 -122 -39t-198 -21q-139 0 -240.5 42t-167 116t-97.5 175t-32 222zM836 635 q2 129 -64.5 212t-183.5 83q-66 0 -116 -25.5t-85 -66.5t-54.5 -94.5t-25.5 -108.5h529zM391 1262q-47 0 -82.5 33.5t-35.5 86.5t35.5 87t82.5 34t83 -33.5t36 -87.5q0 -53 -36 -86.5t-83 -33.5zM781 1262q-47 0 -83 33.5t-36 86.5t35.5 87t83.5 34q47 0 82.5 -33.5 t35.5 -87.5q0 -53 -35.5 -86.5t-82.5 -33.5z" />
<glyph unicode="&#x452;" horiz-adv-x="1169" d="M164 0v1257h-152v142h152v157l190 33v-190h363v-142h-363v-219q53 20 113.5 31.5t120.5 11.5q127 0 211 -35.5t134 -100t70.5 -155t20.5 -198.5v-592q0 -94 -13.5 -166t-47 -120t-93 -72.5t-151.5 -24.5q-29 0 -67 5t-60 11l18 150q16 -6 44 -8t44 -2q76 0 106 50t30 142 v586q0 98 -13.5 167.5t-44.5 112.5t-82 62.5t-127 19.5q-31 0 -63.5 -4t-62 -9t-53 -11t-34.5 -10v-879h-190z" />
<glyph unicode="&#x453;" horiz-adv-x="856" d="M823 905h-469v-905h-190v1065h659v-160zM797 1468l-289 -280l-96 86l262 315z" />
<glyph unicode="&#x454;" horiz-adv-x="1019" d="M104 537q0 117 34 217t99.5 176t163 119t226.5 43q39 0 83 -5.5t84 -13.5t73.5 -18.5t54.5 -20.5l-41 -153q-35 16 -97.5 29.5t-148.5 13.5q-154 0 -232.5 -81t-97.5 -218h430v-154h-434q12 -154 95 -241t249 -87q39 0 81 4.5t80 10.5t68.5 15t49.5 20l26 -162 q-33 -18 -120 -37t-203 -19q-133 0 -230.5 42t-163 117t-97.5 177.5t-32 225.5z" />
<glyph unicode="&#x455;" horiz-adv-x="913" d="M412 137q117 0 173 31t56 98q0 70 -55.5 111t-182.5 92q-61 25 -117.5 50.5t-97.5 60t-65.5 84t-24.5 120.5q0 141 104.5 224.5t284.5 83.5q45 0 90.5 -5.5t84 -12.5t68.5 -15t46 -15l-35 -163q-31 16 -96 33.5t-158 17.5q-80 0 -139 -32t-59 -99q0 -35 13 -61.5t41 -48 t69 -40t98 -39.5q76 -29 135.5 -56.5t101 -64t64.5 -89t23 -128.5q0 -147 -110 -223t-312 -76q-141 0 -221 24t-109 36l35 164q33 -12 104.5 -37t190.5 -25z" />
<glyph unicode="&#x456;" horiz-adv-x="518" d="M354 0h-190v1065h190v-1065zM258 1257q-51 0 -87 34t-36 91t36 91t87 34t87 -33.5t36 -91.5q0 -57 -36 -91t-87 -34z" />
<glyph unicode="&#x457;" horiz-adv-x="518" d="M354 0h-190v1065h190v-1065zM67 1262q-47 0 -82.5 33.5t-35.5 86.5t35.5 87t82.5 34t83 -33.5t36 -87.5q0 -53 -36 -86.5t-83 -33.5zM457 1262q-47 0 -83 33.5t-36 86.5t35.5 87t83.5 34q47 0 82.5 -33.5t35.5 -87.5q0 -53 -35.5 -86.5t-82.5 -33.5z" />
<glyph unicode="&#x458;" horiz-adv-x="518" d="M-10 -383q-25 0 -64 6t-65 17l24 155q20 -6 47 -10t50 -4q98 0 140 60.5t42 176.5v1047h190v-1045q0 -205 -93 -304t-271 -99zM258 1257q-51 0 -87 34t-36 91t36 91t87 34t87 -33.5t36 -91.5q0 -57 -36 -91t-87 -34z" />
<glyph unicode="&#x459;" horiz-adv-x="1767" d="M1260 526q-55 0 -107.5 -3t-93.5 -13v-367q12 -2 35.5 -4t51.5 -3t56.5 -2t50.5 -1q125 0 192.5 47t67.5 152q0 51 -21.5 88t-57 60.5t-80.5 34.5t-94 11zM1059 657q35 8 101.5 16.5t127.5 8.5q84 0 160 -19.5t133 -61.5t91 -108.5t34 -158.5q0 -96 -33 -164t-92 -111 t-143 -62.5t-185 -19.5q-96 0 -193 11.5t-190 34.5v882h-335q0 -68 -3.5 -144.5t-11.5 -153.5t-22.5 -151.5t-36.5 -140.5q-23 -66 -56.5 -123t-83 -101t-115 -73.5t-153.5 -37.5l-26 159q100 20 158.5 75.5t93.5 135.5q31 70 45 158t20 183t7 191.5t1 182.5h707v-408z" />
<glyph unicode="&#x45a;" horiz-adv-x="1742" d="M1264 682q84 0 159.5 -19.5t133 -61.5t91 -108.5t33.5 -158.5q0 -96 -32.5 -164t-92 -111t-143.5 -62.5t-184 -19.5q-96 0 -193.5 11.5t-189.5 34.5v452h-492v-475h-190v1065h190v-430h492v430h188v-408q35 8 102 16.5t128 8.5zM1235 526q-55 0 -107.5 -3t-93.5 -13v-367 q12 -2 36 -4t51.5 -3t56 -2t51.5 -1q125 0 192.5 47t67.5 152q0 51 -21.5 88t-57.5 60.5t-81 34.5t-94 11z" />
<glyph unicode="&#x45b;" horiz-adv-x="1169" d="M164 0v1257h-152v142h152v157l190 33v-190h363v-142h-363v-221q53 20 113.5 31.5t120.5 11.5q127 0 211 -35.5t134 -100t70.5 -155t20.5 -198.5v-590h-190v549q0 98 -13.5 167.5t-44.5 112.5t-82 62.5t-127 19.5q-31 0 -63.5 -4t-62 -9t-53 -11t-34.5 -10v-877h-190z" />
<glyph unicode="&#x45c;" horiz-adv-x="1099" d="M553 580q63 -45 137 -114t144.5 -148.5t132 -162.5t104.5 -155h-225q-45 70 -105.5 142.5t-126 140t-133 125t-127.5 96.5v-504h-190v1065h190v-457q49 47 112.5 109.5t128 127t120 123t90.5 97.5h221q-45 -49 -105.5 -111.5t-125 -128t-128 -130t-114.5 -115.5z M831 1468l-289 -280l-96 86l262 315z" />
<glyph unicode="&#x45d;" horiz-adv-x="1222" d="M1059 1065v-1065h-185v811q-61 -78 -134.5 -182.5t-147.5 -216t-141.5 -220t-116.5 -192.5h-170v1065h184v-766q53 88 121 193.5t140.5 209t145 198.5t136.5 165h168zM494 1589l262 -315l-96 -86l-289 280z" />
<glyph unicode="&#x45e;" horiz-adv-x="1017" d="M39 -199q23 -10 58.5 -19t70.5 -9q113 0 176.5 50t114.5 163q-129 246 -241 521t-185 558h205q23 -92 54.5 -198.5t70 -219t84 -225.5t94.5 -217q78 215 135 426t108 434h197q-74 -301 -164 -578.5t-194 -519.5q-41 -92 -85 -158.5t-97.5 -109.5t-120 -63.5t-150.5 -20.5 q-23 0 -47.5 3t-48 8t-43 11.5t-27.5 10.5zM536 1237q-129 0 -210 65.5t-97 182.5l145 39q16 -66 55.5 -107t106.5 -41q68 0 107 41t55 107l143 -39q-16 -117 -96 -182.5t-209 -65.5z" />
<glyph unicode="&#x45f;" horiz-adv-x="1177" d="M1014 0h-334v-297h-180v297h-336v1065h190v-907h469v907h191v-1065z" />
<glyph unicode="&#x462;" horiz-adv-x="1486" d="M1020 1184h-420v-295h176q150 0 267.5 -24.5t199.5 -79t125 -139.5t43 -208q0 -225 -164 -338.5t-463 -113.5q-43 0 -93 2t-100 6t-99.5 10t-90.5 16v1164h-368v164h368v163h199v-163h420v-164zM801 160q80 0 152.5 12t128 44t88 85t32.5 135q0 86 -29.5 141.5t-85 88 t-136.5 46t-183 13.5h-168v-559q23 -2 53 -4q27 -2 64 -2h84z" />
<glyph unicode="&#x463;" horiz-adv-x="1224" d="M33 1065h274v491l191 33v-524h362v-156h-362v-252q16 4 43.5 8.5t59.5 8.5t66.5 6t65.5 2q88 0 166 -19.5t136.5 -61.5t93 -108.5t34.5 -158.5q0 -96 -32.5 -164t-94 -111t-146.5 -62.5t-190 -19.5q-102 0 -200.5 11.5t-192.5 34.5v886h-274v156zM711 133q121 0 190.5 47 t69.5 152q0 51 -20.5 88t-56.5 60.5t-83 34.5t-100 11q-55 0 -113.5 -3t-99.5 -13v-367q12 -2 36.5 -4t54 -3t61.5 -2t61 -1z" />
<glyph unicode="&#x472;" horiz-adv-x="1593" d="M119 711q0 182 54 321t147.5 232.5t217.5 140.5t263 47q137 0 259 -47t214 -140.5t146.5 -232.5t54.5 -321t-54.5 -321.5t-146.5 -233t-214 -140.5t-259 -47q-139 0 -263 47t-217.5 140.5t-147.5 233t-54 321.5zM1081 700q53 0 99.5 18.5t81.5 47.5q-6 117 -42 212 t-95.5 161.5t-142.5 102.5t-185 36q-104 0 -188.5 -37t-145 -105.5t-95 -167t-40.5 -218.5q41 41 102.5 69.5t153.5 28.5q74 0 135 -23.5t119.5 -51.5t116.5 -50.5t126 -22.5zM1065 545q-74 0 -135.5 22.5t-119.5 50t-116.5 51t-126.5 23.5q-78 0 -139 -38t-90 -83 q33 -201 151.5 -314.5t307.5 -113.5q193 0 311.5 122t146.5 331q-37 -25 -84 -38t-106 -13z" />
<glyph unicode="&#x473;" horiz-adv-x="1208" d="M1104 532q0 -127 -37 -229t-103.5 -176t-158.5 -114t-201 -40t-201 40t-158.5 114t-103.5 176.5t-37 228.5q0 125 37 228.5t103.5 177.5t159 114t200.5 40q109 0 201 -40t158.5 -114t103.5 -177.5t37 -228.5zM766 424q-47 0 -86 15.5t-76 35t-72.5 34.5t-78.5 15 q-49 0 -88 -25.5t-58 -56.5q18 -141 96 -222t201 -81q127 0 206 88t93 242q-25 -20 -58.5 -32.5t-78.5 -12.5zM774 559q41 0 73 17.5t54 41.5q-18 143 -96 225.5t-201 82.5q-129 0 -207 -88t-94 -242q27 27 65 45t93 18q47 0 86 -15t75.5 -34.5t72.5 -35t79 -15.5z" />
<glyph unicode="&#x474;" horiz-adv-x="1542" d="M1346 1440q68 0 126 -25.5t99 -62.5l-88 -144q-33 29 -66 42.5t-59 13.5q-57 0 -90 -39t-72 -138l-430 -1087h-186q-70 154 -136.5 310.5t-135 328.5t-140.5 363.5t-148 416.5h220q111 -324 217 -622.5t219 -560.5l342 913q25 66 50.5 119t62 92t88 59.5t127.5 20.5z" />
<glyph unicode="&#x475;" d="M600 0h-172q-100 217 -207.5 491.5t-187.5 573.5h205q25 -100 58.5 -214t71.5 -225.5t76.5 -216t73.5 -186.5l209 629q18 55 39.5 99t53.5 76t75 48.5t104 16.5q41 0 83 -8.5t85 -22.5l-32 -148q-37 18 -105 19q-57 0 -83.5 -33t-49.5 -92z" />
<glyph unicode="&#x48a;" horiz-adv-x="1525" d="M176 0v1419h195v-1050q66 109 161 248t202.5 283t217 280.5t205.5 238.5h158v-1249h188q2 -72 -16.5 -147.5t-52 -149.5t-79.5 -140.5t-100 -119.5l-137 86q20 20 46 53t50.5 73t45 85t32.5 90h-172v1108q-57 -66 -124.5 -152t-139.5 -183t-144.5 -201.5t-140 -206 t-126 -195.5t-103.5 -170h-166zM748 1556q-127 0 -209 66t-99 182l146 39q16 -66 55 -106.5t107 -40.5t106.5 41t54.5 106l144 -39q-16 -117 -97 -182.5t-208 -65.5z" />
<glyph unicode="&#x48b;" horiz-adv-x="1245" d="M1059 1065v-907h180q2 -72 -13.5 -142.5t-45 -135t-69.5 -121t-87 -99.5l-131 82q12 12 33.5 40t44 62.5t42 74.5t29.5 81h-168v811q-61 -78 -134.5 -182.5t-147.5 -216t-141.5 -220t-116.5 -192.5h-170v1065h184v-766q53 88 121 193.5t140.5 209t145 198.5t136.5 165 h168zM612 1237q-127 0 -208.5 65.5t-98.5 182.5l146 39q16 -66 55 -107t106 -41q68 0 107 41t55 107l144 -39q-16 -117 -97.5 -182.5t-208.5 -65.5z" />
<glyph unicode="&#x48c;" horiz-adv-x="1288" d="M668 1112h-267v-209q41 4 83 5t83 1q645 0 645 -465q0 -229 -166.5 -343.5t-465.5 -114.5q-86 0 -189.5 7t-187.5 27v1092h-164v150h164v157h198v-157h267v-150zM1004 444q0 86 -33 143.5t-91.5 90.5t-139.5 46t-179 13h-79t-81 -4v-567q23 -2 52 -4q25 -2 60.5 -2h82.5 q80 0 153.5 12t130 45t90.5 87t34 140z" />
<glyph unicode="&#x48d;" horiz-adv-x="1073" d="M29 977h151v141h189v-141h311v-133h-311v-199q35 8 101.5 14.5t127.5 6.5q84 0 161 -18.5t135 -58.5t93 -104.5t35 -156.5q0 -96 -34 -163t-94 -108t-145 -60.5t-186 -19.5q-96 0 -193.5 11.5t-189.5 34.5v821h-151v133zM569 514q-55 0 -107 -2t-93 -12v-357 q12 -2 35.5 -4t51 -3t56.5 -2t51 -1q125 0 195.5 44t70.5 149q0 51 -22.5 87t-58 58.5t-83 32.5t-96.5 10z" />
<glyph unicode="&#x48e;" horiz-adv-x="1245" d="M553 1434q299 0 460 -114t161 -339q0 -160 -72 -257t-205 -146l131 -228l-131 -76l-154 267q-49 -8 -101 -11.5t-110 -3.5h-157v-526h-199v1399q84 20 187.5 27.5t189.5 7.5zM569 1260q-127 0 -194 -7v-557h149h67t60 4l-94 164l129 78l119 -207q78 29 119 88.5t41 159.5 q0 82 -32 135t-86 85t-126 44.5t-152 12.5z" />
<glyph unicode="&#x48f;" horiz-adv-x="1206" d="M903 530q0 186 -92 287t-246 101q-86 0 -134 -6.5t-77 -14.5v-672q35 -29 100.5 -55.5t143.5 -26.5q39 0 74 7l-121 210l125 76l125 -219q53 53 77.5 134t24.5 179zM1102 530q0 -158 -53.5 -280.5t-153.5 -194.5l111 -188l-127 -74l-117 201q-66 -18 -139 -19 q-92 0 -163 25t-106 47v-426h-190v1411q68 16 169 35.5t234 19.5q123 0 221.5 -38.5t168 -110.5t107.5 -175.5t38 -232.5z" />
<glyph unicode="&#x490;" horiz-adv-x="1042" d="M829 1419v271h181v-443h-635v-1247h-199v1419h653z" />
<glyph unicode="&#x491;" horiz-adv-x="876" d="M672 1065v266h172v-426h-490v-905h-190v1065h508z" />
<glyph unicode="&#x492;" horiz-adv-x="1069" d="M1036 1419v-172h-635v-442h318v-154h-318v-651h-198v651h-164v154h164v614h833z" />
<glyph unicode="&#x493;" horiz-adv-x="872" d="M840 905h-469v-342h299v-143h-299v-420h-191v420h-151v143h151v502h660v-160z" />
<glyph unicode="&#x494;" horiz-adv-x="1277" d="M1200 260q0 -133 -37 -248.5t-107.5 -203t-172 -137.5t-232.5 -50q-29 0 -60.5 1t-55.5 5l6 162q12 -2 29.5 -3t45.5 -1q82 0 152 31.5t120 92t78.5 148.5t28.5 203q0 233 -105.5 348t-271.5 115q-72 0 -143.5 -12.5t-99.5 -20.5v-690h-199v1419h846v-170h-647v-395 q18 6 48 12t66.5 12.5t75.5 10.5t74 4q139 0 244.5 -45t176 -127t105.5 -200t35 -261z" />
<glyph unicode="&#x495;" horiz-adv-x="1114" d="M590 655q236 0 343 -134t107 -380q0 -111 -27.5 -206t-83 -165.5t-137 -110.5t-188.5 -40q-23 0 -48.5 1t-43.5 5l10 152q20 -4 56 -4q129 0 199.5 89t70.5 279q0 195 -70.5 277t-224.5 82q-45 0 -100.5 -7.5t-98.5 -17.5v-475h-190v1065h725v-158h-535v-284q16 6 44 11 t59.5 10t66.5 8t66 3z" />
<glyph unicode="&#x496;" horiz-adv-x="1886" d="M1774 1419q-55 -70 -127 -154.5t-148 -174t-148.5 -175.5t-129.5 -159q127 -119 252.5 -272.5t230.5 -313.5h170v-549h-188v379h-105q-55 94 -125 189.5t-143.5 184.5t-148 166.5t-142.5 137.5v-678h-191v678q-68 -59 -143.5 -137t-149 -167t-142 -184.5t-124.5 -189.5 h-223q51 98 120 199.5t144.5 200t157.5 189.5t162 165q-57 74 -130 159.5t-148.5 175t-148.5 175.5t-128 155h231q45 -57 109.5 -134t135.5 -162t142.5 -172t134.5 -165v633h191v-633q63 78 135 165t142.5 172t134 162t110.5 134h230z" />
<glyph unicode="&#x497;" horiz-adv-x="1587" d="M1477 1065q-41 -51 -92.5 -111.5t-106.5 -125t-111.5 -128t-107.5 -120.5q92 -88 189.5 -198t181.5 -224h145v-455h-180v297h-74q-43 68 -99.5 142.5t-117 144t-120.5 130t-112 99.5v-516h-182v516q-51 -39 -111.5 -99.5t-121 -130t-116.5 -144t-99 -142.5h-211 q43 74 99 151.5t118.5 152.5t128 144.5t127.5 129.5q-51 57 -107.5 120.5t-112 128t-106.5 125t-94 113.5h211q74 -92 170 -204.5t225 -260.5v465h182v-465q129 147 225.5 260t170.5 205h209z" />
<glyph unicode="&#x498;" horiz-adv-x="1171" d="M297 829h106q68 0 137.5 10.5t127 38t94.5 74.5t37 119q0 92 -79 150.5t-210 58.5q-113 0 -203 -25.5t-133 -52.5l-63 162q25 16 66.5 31.5t94 28t113.5 19.5t127 7q106 0 196.5 -22.5t156 -68.5t102.5 -117t37 -167q0 -98 -62.5 -184t-183.5 -125q61 -16 117.5 -46 t98.5 -76t67.5 -107.5t25.5 -143.5q0 -98 -31.5 -172t-90 -125t-141.5 -80.5t-183 -40.5q-8 -14 -14.5 -27.5t-10.5 -23.5q59 -29 86 -62.5t27 -99.5q0 -23 -10.5 -49t-35 -48.5t-65.5 -37t-100 -14.5q-53 0 -97.5 8t-70.5 19l22 116q25 -8 52.5 -14t62.5 -6q74 0 74 47 q0 23 -22.5 38t-63.5 32l-15 6q8 23 20.5 52.5t26.5 57.5q-78 0 -146.5 11.5t-123.5 28t-95 33.5t-63 30l60 164q23 -12 60.5 -29t84.5 -31t104.5 -24.5t120.5 -10.5q174 0 271.5 58.5t97.5 197.5q0 82 -33.5 134.5t-92 83t-137.5 42t-171 11.5h-127v161z" />
<glyph unicode="&#x499;" horiz-adv-x="1001" d="M434 1092q92 0 172 -18.5t137.5 -55.5t90 -92.5t32.5 -128.5q0 -47 -16 -86t-41 -70t-54.5 -52.5t-56.5 -29.5q94 -29 148.5 -101.5t54.5 -183.5q0 -131 -93 -203.5t-259 -88.5q-8 -16 -15.5 -30.5t-11.5 -27.5q59 -29 86 -62.5t27 -99.5q0 -23 -10.5 -49t-35 -48.5 t-65.5 -37t-100 -14.5q-53 0 -97 8t-71 19l23 116q25 -8 52 -14t62 -6q74 0 74 47q0 23 -22.5 38t-63.5 32l-14 6q8 25 21 56.5t28 59.5q-117 4 -204 22.5t-122 37.5l33 162q33 -12 118 -34t203 -22q129 0 197 40t68 120q0 57 -26 93t-64.5 54.5t-84 24.5t-83.5 6h-179v152 h172q37 0 77 5t74 21.5t56.5 46t22.5 78.5q0 39 -19.5 67t-52.5 46t-77 27.5t-91 9.5q-37 0 -80 -6t-84 -15.5t-73.5 -19.5t-46.5 -19l-35 164q16 6 51 16.5t79 18.5t93 14.5t96 6.5z" />
<glyph unicode="&#x49a;" horiz-adv-x="1343" d="M1042 0q-61 96 -141 193.5t-169 186.5t-180 165t-177 129v-674h-199v1419h199v-626q72 68 157.5 152.5t169.5 170.5t159 165t126 138h240q-63 -70 -143 -154.5t-167.5 -174t-173.5 -175.5t-161 -159q70 -49 145.5 -116t152 -143.5t149.5 -160.5t134 -166h168v-549h-188 v379h-101z" />
<glyph unicode="&#x49b;" horiz-adv-x="1118" d="M354 608q49 47 112.5 109.5t128 127t120 123t90.5 97.5h221q-45 -49 -105.5 -111.5t-125 -128t-128 -130t-114.5 -115.5q47 -33 100.5 -81t107.5 -103.5t106.5 -117t97.5 -120.5h141v-455h-180v297h-76q-45 70 -105.5 142.5t-127 140t-134 125t-129.5 96.5v-504h-190 v1065h190v-457z" />
<glyph unicode="&#x49c;" horiz-adv-x="1447" d="M653 825q63 74 131 156t133.5 162t123 151.5t98.5 124.5h229q-55 -70 -126 -155.5t-145.5 -175t-148.5 -175.5t-135 -157q82 -74 164 -165t158.5 -189.5t144.5 -201t121 -200.5h-223q-53 92 -118 183t-134.5 175t-139 159t-133.5 132v-303h-147v309h-131v-655h-199v1419 h199v-610h131v311h147v-295z" />
<glyph unicode="&#x49d;" horiz-adv-x="1267" d="M618 858v-221q117 133 201 237.5t154 190.5h209q-41 -51 -92.5 -111.5t-106.5 -125t-111.5 -128t-107.5 -120.5q61 -59 126.5 -129t128 -145t120 -153.5t100.5 -152.5h-213q-41 61 -91 131t-103.5 135.5t-108.5 125t-105 102.5v-236h-139v234h-125v-492h-190v1065h190 v-442h125v235h139z" />
<glyph unicode="&#x49e;" horiz-adv-x="1312" d="M1251 1419q-63 -70 -143 -154.5t-167 -174t-173 -175.5t-162 -159q88 -61 186.5 -151.5t192.5 -193t177 -209t138 -202.5h-233q-61 96 -141 193.5t-169 186.5t-180.5 165t-177.5 129v-674h-196v1118h-164v144h164v157h196v-157h199v-144h-199v-325q72 68 158 152.5 t170 170.5t159 165t126 138h239z" />
<glyph unicode="&#x49f;" horiz-adv-x="1138" d="M592 580q63 -45 137 -114t144.5 -148.5t132 -162.5t104.5 -155h-221q-45 70 -105.5 143.5t-129 142t-141.5 129t-142 105.5v-520h-191v846h-151v131h151v141h191v-141h159v-131h-159v-260q59 55 127.5 122.5t134 133t121 125t90.5 98.5h221q-45 -49 -105.5 -111.5 t-125 -128t-128 -130t-114.5 -115.5z" />
<glyph unicode="&#x4a0;" horiz-adv-x="1513" d="M1452 1419q-63 -70 -143 -154.5t-167 -174t-173 -175.5t-162 -159q88 -61 186.5 -151.5t192.5 -193t177 -209t138 -202.5h-233q-61 96 -141 193.5t-169.5 186.5t-180.5 165t-177 129v-674h-199v1249h-368v170h567v-626q72 68 158 152.5t170 170.5t158.5 165t125.5 138 h240z" />
<glyph unicode="&#x4a1;" horiz-adv-x="1243" d="M696 580q63 -45 137 -114t145 -148.5t132 -162.5t104 -155h-221q-45 70 -105.5 142.5t-127 140t-134 125t-128.5 96.5v-504h-191v905h-274v160h465v-457q49 47 112.5 109.5t128 127t119.5 123t90 97.5h221q-45 -49 -105 -111.5t-125 -128t-128.5 -130t-114.5 -115.5z" />
<glyph unicode="&#x4a2;" horiz-adv-x="1482" d="M1069 1419h199v-1249h178v-549h-189v379h-188v655h-694v-655h-199v1419h199v-592h694v592z" />
<glyph unicode="&#x4a3;" horiz-adv-x="1222" d="M1036 158h144v-455h-181v297h-153v471h-492v-471h-190v1065h190v-434h492v434h190v-907z" />
<glyph unicode="&#x4a4;" horiz-adv-x="1669" d="M1069 1419h567v-172h-368v-1247h-199v655h-694v-655h-199v1419h199v-592h694v592z" />
<glyph unicode="&#x4a5;" horiz-adv-x="1343" d="M1036 0h-190v471h-492v-471h-190v1065h190v-434h492v434h465v-160h-275v-905z" />
<glyph unicode="&#x4a6;" horiz-adv-x="2113" d="M1214 0h-198v1249h-641v-1249h-199v1419h1038v-565q18 6 48 12t67 12.5t76 10.5t74 4q139 0 244.5 -45t176 -127t105.5 -200t35 -261q0 -133 -37 -248.5t-107.5 -203t-172 -137.5t-232.5 -50q-29 0 -60.5 1t-56.5 5l6 162q12 -2 29.5 -3t46.5 -1q82 0 151.5 31.5t120 92 t79 148.5t28.5 203q0 233 -105.5 348t-271.5 115q-72 0 -143.5 -12.5t-100.5 -20.5v-690z" />
<glyph unicode="&#x4a7;" horiz-adv-x="1761" d="M1020 625q35 10 102.5 20t126.5 10q236 0 343.5 -134t107.5 -380q0 -111 -27.5 -206t-83 -165.5t-137.5 -110.5t-188 -40q-23 0 -48.5 1t-44.5 5l11 152q20 -4 55 -4q129 0 199.5 89t70.5 279q0 195 -70.5 277t-224.5 82q-43 0 -96 -7.5t-96 -17.5v-475h-191v905h-475 v-905h-190v1065h856v-440z" />
<glyph unicode="&#x4a8;" horiz-adv-x="1609" d="M1112 1231q-57 20 -125.5 33.5t-138.5 13.5q-117 0 -213 -37t-165 -108.5t-106.5 -177t-37.5 -244.5q0 -229 101 -372.5t282 -184.5q-25 78 -38.5 170t-13.5 198q0 113 21.5 213.5t72 176t131.5 119.5t199 44q111 0 190 -41t128 -110.5t72.5 -161.5t23.5 -193 q0 -102 -35 -197.5t-101.5 -173t-159.5 -133t-210 -77.5q37 -61 96.5 -99.5t125 -62t126 -32.5t97.5 -11l-25 -160q-80 2 -169 21.5t-173 61.5t-156.5 107.5t-119.5 159.5q-141 6 -264.5 57.5t-213.5 143.5t-142 226.5t-52 310.5q0 178 56 316t152.5 232.5t225.5 143.5 t274 49q96 0 188.5 -17.5t145.5 -39.5zM1296 573q0 68 -10 127.5t-34.5 104.5t-65.5 70.5t-103 25.5q-117 0 -172 -95t-55 -300q0 -117 13.5 -205t39.5 -160q86 10 158 46t123 92.5t78.5 131t27.5 162.5z" />
<glyph unicode="&#x4a9;" horiz-adv-x="1247" d="M680 379q0 -78 10 -141.5t25 -112.5q119 16 190.5 104t71.5 211q0 92 -29.5 155.5t-111.5 63.5q-80 0 -118 -63t-38 -217zM766 918q-16 6 -55 14t-80 8q-70 0 -132.5 -24.5t-108.5 -74.5t-73.5 -125t-27.5 -175q0 -164 64.5 -267.5t187.5 -136.5q-16 55 -25.5 118.5 t-9.5 137.5q0 88 18.5 164t57.5 131t101 87t151 32q82 0 142 -28.5t99 -79t58.5 -117t19.5 -142.5q0 -80 -24.5 -152.5t-71.5 -132t-115 -102.5t-154 -63q29 -43 73 -69.5t90 -43t89 -24t70 -9.5l-25 -139q-61 2 -129.5 17.5t-134 48t-123 84t-96.5 122.5q-109 6 -200 46 t-157.5 111t-103.5 172.5t-37 234.5q0 135 42 237.5t113 171t164 104.5t195 36q59 0 112.5 -9.5t70.5 -15.5z" />
<glyph unicode="&#x4aa;" horiz-adv-x="1269" d="M676 -23q-127 16 -229.5 72.5t-175 150t-112.5 221.5t-40 290q0 178 54 316t146.5 232.5t215 143.5t262.5 49q88 0 158.5 -12.5t122.5 -28.5t85 -32.5t45 -24.5l-57 -164q-18 12 -53 26.5t-79 29t-96.5 23.5t-105.5 9q-113 0 -203 -39t-153.5 -112.5t-97 -179 t-33.5 -236.5q0 -127 29.5 -231.5t89 -179.5t148.5 -116t208 -41q137 0 227 29t135 51l52 -164q-29 -23 -138.5 -54.5t-277.5 -35.5q-6 -12 -11.5 -23.5t-9.5 -21.5q59 -29 86 -62.5t27 -99.5q0 -23 -10.5 -49t-35 -48.5t-65.5 -37t-100 -14.5q-53 0 -97 8t-71 19l23 116 q25 -8 52 -14t62 -6q74 0 74 47q0 23 -22.5 38t-63.5 32l-14 6q8 25 21.5 57t27.5 61z" />
<glyph unicode="&#x4ab;" horiz-adv-x="952" d="M651 -25l-22 -51q59 -29 85.5 -62.5t26.5 -99.5q0 -23 -10 -49t-34.5 -48.5t-65.5 -37t-101 -14.5q-53 0 -97 8t-71 19l23 116q25 -8 52.5 -14t62.5 -6q74 0 73 47q0 23 -22.5 38t-63.5 32l-14 6q8 25 22.5 59.5t30.5 65.5q-104 14 -183 60t-132 117.5t-80 165t-27 203.5 q0 123 36 225.5t101.5 177.5t161 117t211.5 42q72 0 143.5 -12.5t137.5 -39.5l-43 -161q-43 20 -99.5 32.5t-119.5 12.5q-160 0 -245 -100.5t-85 -293.5q0 -86 19.5 -157.5t61.5 -122.5t107.5 -79t159.5 -28q76 0 137.5 14.5t96.5 30.5l26 -159q-16 -8 -43.5 -17.5 t-62.5 -16.5t-75 -12.5t-79 -7.5z" />
<glyph unicode="&#x4ac;" horiz-adv-x="1157" d="M1124 1419v-172h-446v-1077h182v-549h-188v379h-193v1247h-446v172h1091z" />
<glyph unicode="&#x4ad;" horiz-adv-x="948" d="M915 1065v-160h-346v-747h144v-455h-181v297h-153v905h-346v160h882z" />
<glyph unicode="&#x4ae;" horiz-adv-x="1224" d="M514 0v569q-141 219 -266 432t-236 418h234q78 -168 174 -341t198 -333q100 160 196.5 333t176.5 341h221q-111 -205 -235.5 -416.5t-263.5 -429.5v-573h-199z" />
<glyph unicode="&#x4af;" horiz-adv-x="1028" d="M995 1065q-78 -295 -183 -559t-204 -481v-404h-190v408q-98 217 -202.5 480t-182.5 556h205q25 -100 58.5 -214t71.5 -225.5t76.5 -216t73.5 -186.5q35 82 74 186.5t77 216t71.5 225.5t58.5 214h196z" />
<glyph unicode="&#x4b0;" horiz-adv-x="1224" d="M514 0v434h-289v152h279q-137 215 -260 423t-232 410h234q78 -168 174 -341t198 -333q100 160 196.5 333t176.5 341h221q-111 -203 -233.5 -410.5t-257.5 -422.5h280v-152h-288v-434h-199z" />
<glyph unicode="&#x4b1;" horiz-adv-x="1028" d="M995 1065q-70 -258 -160 -491.5t-180 -434.5h234v-139h-281v-379h-190v379h-281v139h236q-90 201 -181.5 433.5t-158.5 492.5h205q25 -100 58.5 -213t71.5 -224.5t76.5 -215t73.5 -185.5q35 82 74 185.5t77 215t71.5 224.5t58.5 213h196z" />
<glyph unicode="&#x4b2;" horiz-adv-x="1337" d="M1028 0q-31 61 -74 136t-94 156t-106.5 162t-106.5 152q-51 -72 -106.5 -152.5t-105.5 -161.5t-94 -156t-75 -136h-219q92 180 214 366.5t259 383.5l-454 669h229l350 -528l346 528h228l-447 -661q106 -154 203.5 -300.5t181.5 -287.5h168v-549h-188v379h-109z" />
<glyph unicode="&#x4b3;" horiz-adv-x="1075" d="M801 0q-23 45 -55.5 100.5t-71.5 113.5t-80 115.5t-80 108.5q-39 -51 -80 -109.5t-79 -116.5t-70.5 -113.5t-55.5 -98.5h-196q72 139 171 283.5t197 275.5l-352 506h215l254 -373l256 373h203l-344 -494q72 -98 146.5 -202.5t140.5 -210.5h143v-455h-180v297h-82z" />
<glyph unicode="&#x4b4;" horiz-adv-x="1732" d="M1518 170h178v-549h-189v379h-1069v1247h-405v172h999v-172h-395v-1077h682v1249h199v-1249z" />
<glyph unicode="&#x4b5;" horiz-adv-x="1353" d="M1167 158h144v-455h-181v297h-813v905h-284v160h749v-160h-274v-747h469v907h190v-907z" />
<glyph unicode="&#x4b6;" horiz-adv-x="1331" d="M315 1010q0 -86 15.5 -150.5t53.5 -106.5t102.5 -62.5t162.5 -20.5q39 0 79 3t77 7t65.5 10l47.5 10v719h198v-1249h178v-549h-188v379h-188v528q-39 -10 -120 -20t-173 -10q-156 0 -254.5 35.5t-154.5 102t-76.5 162t-20.5 212.5v409h196v-409z" />
<glyph unicode="&#x4b7;" horiz-adv-x="1114" d="M285 1065v-313q0 -121 61.5 -169t167.5 -48q78 0 130 8t93 18v504h191v-907h143v-455h-180v297h-154v414q-16 -4 -42.5 -10.5t-60.5 -11.5t-71 -9t-71 -4q-88 0 -161 18.5t-125 61.5t-82 113.5t-30 177.5v315h191z" />
<glyph unicode="&#x4b8;" horiz-adv-x="1306" d="M315 1010q0 -74 11.5 -132.5t38 -99.5t71.5 -66.5t113 -35.5v252h153v-258q78 4 138.5 13t91.5 17v719h198v-1419h-198v528q-31 -8 -91.5 -16t-138.5 -12v-260h-153v260q-131 8 -215 48t-131 105.5t-65.5 155.5t-18.5 201v409h196v-409z" />
<glyph unicode="&#x4b9;" horiz-adv-x="1091" d="M270 1065v-313q0 -102 43 -154.5t121 -67.5v195h141v-197q57 4 95.5 11.5t66.5 15.5v510h191v-1065h-191v414q-23 -6 -64.5 -15.5t-97.5 -15.5v-193h-141v189q-80 4 -144.5 25.5t-111.5 64.5t-72.5 111.5t-25.5 169.5v315h190z" />
<glyph unicode="&#x4ba;" horiz-adv-x="1308" d="M375 909q41 10 124 20.5t175 10.5q158 0 258 -37t157.5 -104.5t79 -163.5t21.5 -217v-418h-197v418q0 88 -16 154.5t-56 109.5t-105.5 64.5t-166.5 21.5q-80 0 -158.5 -10t-115.5 -21v-737h-199v1419h199v-510z" />
<glyph unicode="&#x4bb;" horiz-adv-x="1169" d="M164 0v1556l190 33v-545q53 20 113.5 31.5t120.5 11.5q127 0 211 -35.5t134 -100t70.5 -154.5t20.5 -199v-598h-190v557q0 98 -13.5 168t-44.5 113t-82 62.5t-127 19.5q-31 0 -63.5 -4.5t-62 -9.5t-53 -11t-34.5 -10v-885h-190z" />
<glyph unicode="&#x4bc;" horiz-adv-x="1710" d="M592 664q18 -264 140 -392.5t372 -128.5q66 0 120 9.5t97 22.5t74.5 27.5t52.5 24.5l49 -164q-16 -12 -53 -27.5t-90.5 -30.5t-123 -25.5t-149.5 -10.5q-172 0 -301 51.5t-215 143.5t-130 219t-50 279q-78 6 -142.5 23t-111.5 54t-73.5 95.5t-26.5 142.5q0 29 4 57.5 t8 42.5l158 -18q-2 -12 -3 -29.5t-1 -34.5q0 -78 45 -113.5t149 -45.5q16 154 71.5 269.5t138.5 192t190.5 115.5t230.5 39q133 0 239.5 -45t180.5 -134t113.5 -222t39.5 -310q0 -16 -2 -40.5t-4 -36.5h-997zM1386 825q0 100 -24.5 184.5t-70.5 144.5t-114.5 94t-158.5 34 q-104 0 -181 -41t-128.5 -105.5t-78 -146.5t-32.5 -164h788z" />
<glyph unicode="&#x4bd;" horiz-adv-x="1372" d="M332 489q-68 8 -125 29t-97 56.5t-62.5 90t-22.5 132.5q0 29 4 55.5t8 40.5l149 -19q-2 -12 -3 -27.5t-1 -31.5q0 -143 158 -170q16 113 61 197t109.5 139t143.5 83t163 28q213 0 329 -135.5t116 -407.5q0 -16 -1 -27.5t-1 -21.5v-19h-730q12 -164 97.5 -251t261.5 -87 q100 0 168.5 17.5t103.5 34.5l27 -160q-35 -18 -122 -39t-198 -21q-133 0 -231 39t-164.5 107.5t-100.5 162.5t-40 205zM1063 635q2 129 -64.5 212t-183.5 83q-66 0 -116 -25.5t-83.5 -66.5t-54 -94.5t-26.5 -108.5h528z" />
<glyph unicode="&#x4be;" horiz-adv-x="1710" d="M592 664q18 -264 140 -392.5t372 -128.5q66 0 120 9.5t97 22.5t74.5 27.5t52.5 24.5l49 -164q-16 -12 -51 -27.5t-86 -29.5t-116.5 -24.5t-141.5 -12.5v-348h-187v363q-131 23 -228 82t-162.5 148t-100.5 202.5t-39 245.5q-78 6 -142.5 23t-111.5 54t-73.5 95.5 t-26.5 142.5q0 29 4 57.5t8 42.5l158 -18q-2 -12 -3 -29.5t-1 -34.5q0 -78 45 -113.5t149 -45.5q16 154 71.5 269.5t138.5 192t190.5 115.5t230.5 39q133 0 239.5 -45t180.5 -134t113.5 -222t39.5 -310q0 -16 -2 -40.5t-4 -36.5h-997zM1386 825q0 100 -24.5 184.5 t-70.5 144.5t-114.5 94t-158.5 34q-104 0 -181 -41t-128.5 -105.5t-78 -146.5t-32.5 -164h788z" />
<glyph unicode="&#x4bf;" horiz-adv-x="1372" d="M332 489q-68 8 -125 29t-97 56.5t-62.5 90t-22.5 132.5q0 29 4 55.5t8 40.5l149 -19q-2 -12 -3 -27.5t-1 -31.5q0 -143 158 -170q16 113 61 197t109.5 139t143.5 83t163 28q213 0 329 -135.5t116 -407.5q0 -16 -1 -27.5t-1 -21.5v-19h-730q12 -164 97.5 -251t261.5 -87 q100 0 168.5 17.5t103.5 34.5l27 -160q-33 -16 -107.5 -34.5t-173.5 -23.5v-274h-180v287q-96 18 -169 63t-121 109.5t-74.5 147.5t-30.5 179zM1063 635q2 129 -64.5 212t-183.5 83q-66 0 -116 -25.5t-83.5 -66.5t-54 -94.5t-26.5 -108.5h528z" />
<glyph unicode="&#x4c0;" horiz-adv-x="550" d="M176 1419h199v-1419h-199v1419z" />
<glyph unicode="&#x4c1;" horiz-adv-x="1853" d="M635 754q-61 72 -136 158.5t-150 176t-145.5 175.5t-125.5 155h231q45 -57 107.5 -135t133.5 -163t143.5 -172t137.5 -163v633h191v-633q63 76 136 163t143.5 173t134 163t108.5 134h230q-55 -70 -126 -155.5t-146 -175t-148.5 -175.5t-134.5 -157q82 -74 163.5 -165 t158.5 -189.5t144.5 -201t120.5 -200.5h-225q-55 94 -125 189.5t-143.5 184.5t-148 166.5t-142.5 137.5v-678h-191v678q-68 -59 -143.5 -137t-149 -167t-142 -184.5t-124.5 -189.5h-223q51 98 119 200.5t144.5 201t159.5 188.5t163 164zM928 1556q-129 0 -210 65.5 t-97 182.5l145 39q16 -66 55.5 -107t106.5 -41q68 0 107 41t55 107l143 -39q-16 -117 -96 -182.5t-209 -65.5z" />
<glyph unicode="&#x4c2;" horiz-adv-x="1562" d="M1477 1065q-41 -51 -92.5 -111.5t-106.5 -125t-111.5 -128t-107.5 -120.5q61 -59 126.5 -129t128 -145t120 -153.5t100.5 -152.5h-213q-43 68 -99.5 142.5t-117 144t-120.5 130t-112 99.5v-516h-182v516q-51 -39 -111.5 -99.5t-121 -130t-116.5 -144t-99 -142.5h-211 q43 74 99 151.5t118.5 152.5t128 144.5t127.5 129.5q-51 57 -107.5 120.5t-112 128t-106.5 125t-94 113.5h211q74 -92 170 -204.5t225 -260.5v465h182v-465q129 147 225.5 260t170.5 205h209zM782 1237q-129 0 -210 65.5t-97 182.5l145 39q16 -66 55.5 -107t106.5 -41 q68 0 107 41t55 107l143 -39q-16 -117 -96 -182.5t-209 -65.5z" />
<glyph unicode="&#x4c3;" horiz-adv-x="1292" d="M375 1419v-649q68 70 150.5 158t164.5 177t156 172t125 142h233q-57 -68 -127.5 -146.5t-146.5 -160.5t-155 -164t-150 -153q121 -10 226 -45t183 -102.5t123 -173t45 -255.5q0 -123 -33.5 -231.5t-100.5 -190.5t-166 -129t-230 -47q-29 0 -60.5 1t-56.5 5l6 162 q12 -2 29.5 -3t46.5 -1q162 0 261 111.5t99 322.5q0 147 -51 231.5t-128 127.5t-164 53t-160 10q-29 0 -60 -1t-59 -3v-637h-199v1419h199z" />
<glyph unicode="&#x4c4;" horiz-adv-x="1114" d="M354 600q49 47 113.5 109.5t129.5 127t123 125t97 103.5h223q-43 -47 -99 -103.5t-116.5 -115t-120 -114.5t-110.5 -105q211 -12 332 -146.5t121 -367.5q0 -98 -29 -187.5t-85 -158t-139 -108.5t-190 -40q-23 0 -48.5 1t-43.5 5l10 152q20 -4 56 -4q129 0 203.5 87 t74.5 253q0 195 -99.5 284.5t-285.5 89.5q-31 0 -66.5 -3t-50.5 -7v-477h-190v1065h190v-465z" />
<glyph unicode="&#x4c5;" horiz-adv-x="1482" d="M662 1249q-4 -115 -8.5 -222t-12.5 -208.5t-24.5 -198t-45.5 -188.5t-70.5 -173t-104 -141.5t-147.5 -97t-200 -40.5l-22 172q143 16 222 89.5t130 225.5q57 172 72.5 414.5t15.5 537.5h805v-1249h188q2 -72 -16.5 -147.5t-52 -149.5t-79.5 -140.5t-100 -119.5l-137 86 q20 20 46 53t50.5 73t45 85t32.5 90h-176v1249h-411z" />
<glyph unicode="&#x4c6;" horiz-adv-x="1247" d="M535 905q0 -68 -3.5 -144.5t-11.5 -153.5t-22.5 -151.5t-36.5 -140.5q-23 -66 -56.5 -123t-83 -101t-115 -73.5t-153.5 -37.5l-26 159q100 20 158.5 75.5t93.5 135.5q31 70 45 158t20 183t7 191.5t1 182.5h709v-907h180q0 -72 -17.5 -144.5t-47 -139.5t-68.5 -122 t-82 -92l-131 82q12 12 33.5 40t44 62.5t42 74.5t29.5 81h-174v905h-335z" />
<glyph unicode="&#x4c7;" horiz-adv-x="1443" d="M1069 1419h199v-1419q0 -94 -13.5 -166t-47 -120t-93 -72.5t-151.5 -24.5q-29 0 -67 5t-60 11l18 150q16 -6 44 -8t44 -2q76 0 101.5 50t25.5 142v690h-694v-655h-199v1419h199v-592h694v592z" />
<glyph unicode="&#x4c8;" horiz-adv-x="1200" d="M1036 0q0 -94 -13 -166t-47 -120t-93.5 -72.5t-151.5 -24.5q-29 0 -66.5 5t-60.5 11l19 150q16 -6 43.5 -8t44.5 -2q76 0 105.5 50t29.5 142v506h-492v-471h-190v1065h190v-434h492v434h190v-1065z" />
<glyph unicode="&#x4c9;" horiz-adv-x="1478" d="M1069 1419h199v-1249h188q2 -72 -16.5 -147.5t-52 -149.5t-79.5 -140.5t-100 -119.5l-137 86q20 20 46 53t50.5 73t45 85t32.5 90h-176v655h-694v-655h-199v1419h199v-592h694v592z" />
<glyph unicode="&#x4ca;" horiz-adv-x="1222" d="M1036 158h181q2 -72 -13.5 -142.5t-45.5 -135t-69.5 -121t-87.5 -99.5l-131 82q12 12 34 40t44.5 62.5t42 74.5t29.5 81h-174v471h-492v-471h-190v1065h190v-434h492v434h190v-907z" />
<glyph unicode="&#x4cb;" horiz-adv-x="1306" d="M330 1010q0 -86 15 -150.5t53 -106.5t102.5 -62.5t163.5 -20.5q39 0 78.5 3t76.5 7t65.5 10l47.5 10v719h198v-1419h-188v-379h-188v549h178v358q-39 -10 -120 -20t-173 -10q-156 0 -254 35.5t-154.5 102t-77 162t-20.5 212.5v409h197v-409z" />
<glyph unicode="&#x4cc;" horiz-adv-x="1091" d="M285 1065v-313q0 -121 61.5 -169t167.5 -48q78 0 130 8t93 18v504h191v-1065h-154v-297h-180v455h143v256q-16 -4 -42.5 -10.5t-60.5 -11.5t-71 -9t-71 -4q-88 0 -161 18.5t-125 61.5t-82 113.5t-30 177.5v315h191z" />
<glyph unicode="&#x4cd;" horiz-adv-x="1841" d="M813 197q-20 49 -54 124.5t-73 163.5t-83 181.5t-83 176.5t-72.5 148.5t-54.5 100.5q-23 -242 -37 -523.5t-24 -568.5h-195q8 184 18.5 371.5t24 369t28.5 353.5t34 325h174q55 -90 118.5 -213t127 -257t123 -268t108.5 -245q49 111 108.5 245t123 268t127 257t118.5 213 h174q31 -305 55.5 -615t40.5 -634h189q2 -72 -16.5 -147.5t-52.5 -149.5t-80 -140.5t-99 -119.5l-137 86q20 20 46 53t50.5 73t45 85t32.5 90h-164q-10 287 -24.5 568.5t-36.5 523.5q-20 -35 -54 -100.5t-73 -148.5t-83 -176.5t-83 -181.5t-73 -163.5t-54 -124.5h-160z" />
<glyph unicode="&#x4ce;" horiz-adv-x="1538" d="M367 784q-20 -203 -30.5 -404.5t-17.5 -379.5h-182q4 125 12.5 261t18.5 274.5t22.5 272.5t26.5 257h174q66 -106 154 -291.5t203 -427.5q115 242 202.5 427t153.5 292h176q12 -104 22.5 -217t19.5 -229.5t17.5 -233.5t14.5 -227h180q2 -72 -13.5 -142.5t-45 -135 t-69.5 -121t-87 -99.5l-131 82q12 12 33.5 40t44 62.5t42 74.5t29.5 81h-166q-6 178 -16 380t-31 404q-33 -63 -75.5 -152t-84.5 -181.5t-79 -176.5t-58 -133h-159q-23 51 -61 135t-80 177.5t-84.5 182.5t-75.5 148z" />
<glyph unicode="&#x4cf;" horiz-adv-x="550" d="M176 1419h199v-1419h-199v1419z" />
<glyph unicode="&#x4d0;" horiz-adv-x="1357" d="M1124 0q-35 92 -65.5 181t-63.5 181h-643l-129 -362h-207q82 225 154 416.5t140.5 363.5t136 329t141.5 310h182q74 -154 141.5 -310.5t136 -328.5t140.5 -363.5t153 -416.5h-217zM938 526q-66 178 -130.5 345t-133.5 321q-72 -154 -136.5 -320.5t-127.5 -345.5h528z M682 1556q-129 0 -210 65.5t-97 182.5l145 39q16 -66 55.5 -107t106.5 -41q68 0 107 41t55 107l143 -39q-16 -117 -96 -182.5t-209 -65.5z" />
<glyph unicode="&#x4d1;" horiz-adv-x="1069" d="M524 137q68 0 120 3t87 12v317q-20 10 -66.5 17.5t-111.5 7.5q-43 0 -91 -6.5t-88 -26t-66.5 -53t-26.5 -89.5q0 -102 65 -142t178 -40zM508 1092q115 0 193.5 -30t127 -84t69 -129t20.5 -165v-666q-25 -4 -69 -11t-99.5 -13t-120 -11.5t-127.5 -5.5q-90 0 -166 18.5 t-131 58.5t-86 105.5t-31 157.5q0 88 36 151.5t97.5 102.5t143 57.5t172.5 18.5q29 0 59.5 -3t58 -8t48 -9t28.5 -6v53q0 47 -10 93t-37 82t-73 57.5t-119 21.5q-94 0 -165 -13.5t-106 -27.5l-22 157q37 16 123 32t186 16zM540 1237q-129 0 -210 65.5t-97 182.5l145 39 q16 -66 55.5 -107t106.5 -41q68 0 107 41t55 107l143 -39q-16 -117 -96 -182.5t-209 -65.5z" />
<glyph unicode="&#x4d2;" horiz-adv-x="1357" d="M1124 0q-35 92 -65.5 181t-63.5 181h-643l-129 -362h-207q82 225 154 416.5t140.5 363.5t136 329t141.5 310h182q74 -154 141.5 -310.5t136 -328.5t140.5 -363.5t153 -416.5h-217zM938 526q-66 178 -130.5 345t-133.5 321q-72 -154 -136.5 -320.5t-127.5 -345.5h528z M483 1581q-47 0 -82.5 33.5t-35.5 86.5t35.5 87t82.5 34t83 -33.5t36 -87.5q0 -53 -36 -86.5t-83 -33.5zM873 1581q-47 0 -83 33.5t-36 86.5t35.5 87t83.5 34q47 0 82.5 -33.5t35.5 -87.5q0 -53 -35.5 -86.5t-82.5 -33.5z" />
<glyph unicode="&#x4d3;" horiz-adv-x="1069" d="M524 137q68 0 120 3t87 12v317q-20 10 -66.5 17.5t-111.5 7.5q-43 0 -91 -6.5t-88 -26t-66.5 -53t-26.5 -89.5q0 -102 65 -142t178 -40zM508 1092q115 0 193.5 -30t127 -84t69 -129t20.5 -165v-666q-25 -4 -69 -11t-99.5 -13t-120 -11.5t-127.5 -5.5q-90 0 -166 18.5 t-131 58.5t-86 105.5t-31 157.5q0 88 36 151.5t97.5 102.5t143 57.5t172.5 18.5q29 0 59.5 -3t58 -8t48 -9t28.5 -6v53q0 47 -10 93t-37 82t-73 57.5t-119 21.5q-94 0 -165 -13.5t-106 -27.5l-22 157q37 16 123 32t186 16zM344 1262q-47 0 -82.5 33.5t-35.5 86.5t35.5 87 t82.5 34t83 -33.5t36 -87.5q0 -53 -36 -86.5t-83 -33.5zM734 1262q-47 0 -83 33.5t-36 86.5t35.5 87t83.5 34q47 0 82.5 -33.5t35.5 -87.5q0 -53 -35.5 -86.5t-82.5 -33.5z" />
<glyph unicode="&#x4d4;" horiz-adv-x="1914" d="M1788 1253h-617v-428h543v-161h-543v-498h668v-166h-864v365h-559q-49 -90 -97.5 -181.5t-93.5 -183.5h-213q117 221 228.5 416.5t218 370t210 331t205.5 301.5h914v-166zM975 1264q-109 -147 -225.5 -334t-241.5 -404h467v738z" />
<glyph unicode="&#x4d5;" horiz-adv-x="1759" d="M1255 -25q-117 0 -203.5 28t-152.5 81q-20 -14 -54 -32.5t-81 -36t-105.5 -29t-128.5 -11.5q-102 0 -183 18.5t-138 59.5t-88 106.5t-31 157.5q0 88 36 151.5t97.5 102.5t143.5 57.5t172 18.5q29 0 59.5 -3t57 -8t47 -9t28.5 -6v53q0 47 -10 93t-37 82t-73 57.5 t-119 21.5q-94 0 -165 -13.5t-106 -27.5l-22 157q37 16 122 32t183 16q141 0 224 -48.5t124 -134.5q68 92 160 137.5t192 45.5q213 0 329 -135.5t116 -407.5q0 -16 -1 -27.5t-1 -21.5v-19h-729q12 -164 97 -251t261 -87q100 0 168.5 17.5t103.5 34.5l27 -160 q-35 -18 -122 -39t-198 -21zM535 137q106 0 167.5 23.5t94.5 46.5q-31 57 -48.5 122.5t-19.5 139.5q-23 10 -65.5 17.5t-108.5 7.5q-43 0 -91 -6.5t-88 -26t-66.5 -53t-26.5 -89.5q0 -104 66.5 -143t185.5 -39zM1450 635q2 129 -64.5 212t-183.5 83q-66 0 -116 -25.5 t-83.5 -66.5t-54 -94.5t-26.5 -108.5h528z" />
<glyph unicode="&#x4d6;" horiz-adv-x="1169" d="M176 0v1419h866v-170h-667v-422h594v-165h-594v-492h719v-170h-918zM592 1556q-129 0 -210 65.5t-97 182.5l145 39q16 -66 55.5 -107t106.5 -41q68 0 107 41t55 107l143 -39q-16 -117 -96 -182.5t-209 -65.5z" />
<glyph unicode="&#x4d7;" horiz-adv-x="1144" d="M104 530q0 141 41 247t109 175.5t156 104.5t180 35q215 0 329.5 -134.5t114.5 -408.5v-31.5t-2 -36.5h-729q12 -166 96 -252t263 -86q100 0 168.5 17.5t103.5 34.5l27 -160q-35 -18 -122 -39t-198 -21q-139 0 -240.5 42t-167 116t-97.5 175t-32 222zM836 635 q2 129 -64.5 212t-183.5 83q-66 0 -116 -25.5t-85 -66.5t-54.5 -94.5t-25.5 -108.5h529zM579 1237q-129 0 -210 65.5t-97 182.5l145 39q16 -66 55.5 -107t106.5 -41q68 0 107 41t55 107l143 -39q-16 -117 -96 -182.5t-209 -65.5z" />
<glyph unicode="&#x4d8;" horiz-adv-x="1443" d="M1118 758q-18 264 -140 392t-372 128q-66 0 -120 -9t-97 -22.5t-74.5 -28t-52.5 -24.5l-49 164q16 12 53 27.5t90.5 31t123 25.5t149.5 10q178 0 309 -55.5t217 -153.5t128 -233.5t42 -292.5q0 -188 -49 -327.5t-135 -234t-202 -140.5t-251 -46q-268 0 -420.5 178.5 t-152.5 532.5q0 16 2 40.5t4 37.5h997zM324 596q0 -100 24.5 -184t70.5 -144.5t114.5 -94.5t158.5 -34q104 0 181 41t128.5 105.5t78 146.5t32.5 164h-788z" />
<glyph unicode="&#x4d9;" horiz-adv-x="1144" d="M1040 537q0 -141 -41 -247t-108.5 -175.5t-155.5 -104.5t-180 -35q-213 0 -328.5 135.5t-115.5 407.5v49q0 10 2 19h729q-12 164 -97.5 251t-261.5 87q-100 0 -168.5 -17.5t-103.5 -34.5l-27 160q35 18 122 39t198 21q139 0 240.5 -42t167 -116t97 -176t31.5 -221z M309 432q-2 -129 64.5 -212t183.5 -83q66 0 116 25.5t84 66.5t54 94.5t27 108.5h-529z" />
<glyph unicode="&#x4da;" horiz-adv-x="1443" d="M1118 758q-18 264 -140 392t-372 128q-66 0 -120 -9t-97 -22.5t-74.5 -28t-52.5 -24.5l-49 164q16 12 53 27.5t90.5 31t123 25.5t149.5 10q178 0 309 -55.5t217 -153.5t128 -233.5t42 -292.5q0 -188 -49 -327.5t-135 -234t-202 -140.5t-251 -46q-268 0 -420.5 178.5 t-152.5 532.5q0 16 2 40.5t4 37.5h997zM324 596q0 -100 24.5 -184t70.5 -144.5t114.5 -94.5t158.5 -34q104 0 181 41t128.5 105.5t78 146.5t32.5 164h-788zM501 1581q-47 0 -82.5 33.5t-35.5 86.5t35.5 87t82.5 34t83 -33.5t36 -87.5q0 -53 -36 -86.5t-83 -33.5zM891 1581 q-47 0 -83 33.5t-36 86.5t35.5 87t83.5 34q47 0 82.5 -33.5t35.5 -87.5q0 -53 -35.5 -86.5t-82.5 -33.5z" />
<glyph unicode="&#x4db;" horiz-adv-x="1144" d="M1040 537q0 -141 -41 -247t-108.5 -175.5t-155.5 -104.5t-180 -35q-213 0 -328.5 135.5t-115.5 407.5v49q0 10 2 19h729q-12 164 -97.5 251t-261.5 87q-100 0 -168.5 -17.5t-103.5 -34.5l-27 160q35 18 122 39t198 21q139 0 240.5 -42t167 -116t97 -176t31.5 -221z M309 432q-2 -129 64.5 -212t183.5 -83q66 0 116 25.5t84 66.5t54 94.5t27 108.5h-529zM364 1262q-47 0 -82.5 33.5t-35.5 86.5t35.5 87t82.5 34t83 -33.5t36 -87.5q0 -53 -36 -86.5t-83 -33.5zM754 1262q-47 0 -83 33.5t-36 86.5t35.5 87t83.5 34q47 0 82.5 -33.5 t35.5 -87.5q0 -53 -35.5 -86.5t-82.5 -33.5z" />
<glyph unicode="&#x4dc;" horiz-adv-x="1853" d="M635 754q-61 72 -136 158.5t-150 176t-145.5 175.5t-125.5 155h231q45 -57 107.5 -135t133.5 -163t143.5 -172t137.5 -163v633h191v-633q63 76 136 163t143.5 173t134 163t108.5 134h230q-55 -70 -126 -155.5t-146 -175t-148.5 -175.5t-134.5 -157q82 -74 163.5 -165 t158.5 -189.5t144.5 -201t120.5 -200.5h-225q-55 94 -125 189.5t-143.5 184.5t-148 166.5t-142.5 137.5v-678h-191v678q-68 -59 -143.5 -137t-149 -167t-142 -184.5t-124.5 -189.5h-223q51 98 119 200.5t144.5 201t159.5 188.5t163 164zM731 1581q-47 0 -82.5 33.5 t-35.5 86.5t35.5 87t82.5 34t83 -33.5t36 -87.5q0 -53 -36 -86.5t-83 -33.5zM1121 1581q-47 0 -83 33.5t-36 86.5t35.5 87t83.5 34q47 0 82.5 -33.5t35.5 -87.5q0 -53 -35.5 -86.5t-82.5 -33.5z" />
<glyph unicode="&#x4dd;" horiz-adv-x="1562" d="M1477 1065q-41 -51 -92.5 -111.5t-106.5 -125t-111.5 -128t-107.5 -120.5q61 -59 126.5 -129t128 -145t120 -153.5t100.5 -152.5h-213q-43 68 -99.5 142.5t-117 144t-120.5 130t-112 99.5v-516h-182v516q-51 -39 -111.5 -99.5t-121 -130t-116.5 -144t-99 -142.5h-211 q43 74 99 151.5t118.5 152.5t128 144.5t127.5 129.5q-51 57 -107.5 120.5t-112 128t-106.5 125t-94 113.5h211q74 -92 170 -204.5t225 -260.5v465h182v-465q129 147 225.5 260t170.5 205h209zM585 1262q-47 0 -82.5 33.5t-35.5 86.5t35.5 87t82.5 34t83 -33.5t36 -87.5 q0 -53 -36 -86.5t-83 -33.5zM975 1262q-47 0 -83 33.5t-36 86.5t35.5 87t83.5 34q47 0 82.5 -33.5t35.5 -87.5q0 -53 -35.5 -86.5t-82.5 -33.5z" />
<glyph unicode="&#x4de;" horiz-adv-x="1171" d="M297 829h106q68 0 137.5 10.5t127 38t94.5 74.5t37 119q0 92 -79 150.5t-210 58.5q-113 0 -203 -25.5t-133 -52.5l-63 162q25 16 66.5 31.5t94 28t113.5 19.5t127 7q106 0 196.5 -22.5t156 -68.5t102.5 -117t37 -167q0 -98 -62.5 -184t-183.5 -125q61 -16 117.5 -46 t98.5 -76t67.5 -107.5t25.5 -143.5q0 -113 -42 -193.5t-116.5 -132t-181 -75t-235.5 -23.5q-78 0 -148 11.5t-125 27t-96 33.5t-64 31l60 164q23 -12 60.5 -29t84.5 -31t104.5 -24.5t120.5 -10.5q174 0 271.5 58.5t97.5 197.5q0 82 -33.5 134.5t-92 83t-137.5 42t-171 11.5 h-127v161zM327 1581q-47 0 -82.5 33.5t-35.5 86.5t35.5 87t82.5 34t83 -33.5t36 -87.5q0 -53 -36 -86.5t-83 -33.5zM717 1581q-47 0 -83 33.5t-36 86.5t35.5 87t83.5 34q47 0 82.5 -33.5t35.5 -87.5q0 -53 -35.5 -86.5t-82.5 -33.5z" />
<glyph unicode="&#x4df;" horiz-adv-x="1001" d="M434 1092q92 0 172 -18.5t137.5 -55.5t90 -92.5t32.5 -128.5q0 -47 -16 -86t-41 -70t-54.5 -52.5t-56.5 -29.5q94 -29 148.5 -101.5t54.5 -183.5q0 -152 -123 -225.5t-334 -73.5q-129 0 -222 20.5t-132 39.5l33 162q33 -12 118 -34t203 -22q129 0 197 40t68 120 q0 57 -26 93t-64.5 54.5t-84 24.5t-83.5 6h-179v152h172q37 0 77 5t74 21.5t56.5 46t22.5 78.5q0 39 -19.5 67t-52.5 46t-77 27.5t-91 9.5q-37 0 -80 -6t-84 -15.5t-73.5 -19.5t-46.5 -19l-35 164q16 6 51 16.5t79 18.5t93 14.5t96 6.5zM278 1262q-47 0 -82.5 33.5 t-35.5 86.5t35.5 87t82.5 34t83 -33.5t36 -87.5q0 -53 -36 -86.5t-83 -33.5zM668 1262q-47 0 -83 33.5t-36 86.5t35.5 87t83.5 34q47 0 82.5 -33.5t35.5 -87.5q0 -53 -35.5 -86.5t-82.5 -33.5z" />
<glyph unicode="&#x4e0;" horiz-adv-x="1161" d="M377 801q51 51 107.5 112.5t109.5 123t100 118.5t80 98h-657v166h909v-119q-31 -45 -78 -104t-104.5 -123.5t-118.5 -130t-119 -127.5q92 -10 175 -38.5t144.5 -79t97.5 -126t36 -176.5q0 -111 -42 -191.5t-117 -133t-181.5 -77t-235.5 -24.5q-78 0 -147.5 11.5 t-124.5 27t-96 33.5t-64 31l60 164q23 -12 60.5 -29t84.5 -31t104.5 -24.5t120.5 -10.5q174 0 271.5 59.5t97.5 198.5q0 82 -34 136.5t-92 87t-137 46t-171 13.5h-39v119z" />
<glyph unicode="&#x4e1;" horiz-adv-x="964" d="M246 451q45 51 96 112.5t99 124t89 118.5t70 99h-559v160h795v-111q-29 -47 -71 -107.5t-91 -127t-103.5 -133t-105.5 -123.5q86 -12 163 -39t133 -73t89 -116.5t33 -171.5q0 -111 -38 -193.5t-108.5 -138t-169 -83t-219.5 -27.5q-113 0 -208 18.5t-146 45.5l41 163 q47 -23 131 -41t180 -18q166 0 254 72.5t88 206.5q0 80 -35 130t-91 78.5t-130 39t-151 10.5h-35v125z" />
<glyph unicode="&#x4e2;" horiz-adv-x="1490" d="M176 0v1419h195v-1050q66 109 161 248t202.5 283t217 280.5t205.5 238.5h158v-1419h-195v1108q-57 -66 -124.5 -152t-139.5 -183t-144.5 -201.5t-140 -206t-126 -195.5t-103.5 -170h-166zM454 1775h582v-147h-582v147z" />
<glyph unicode="&#x4e3;" horiz-adv-x="1222" d="M1059 1065v-1065h-185v811q-61 -78 -134.5 -182.5t-147.5 -216t-141.5 -220t-116.5 -192.5h-170v1065h184v-766q53 88 121 193.5t140.5 209t145 198.5t136.5 165h168zM325 1456h582v-147h-582v147z" />
<glyph unicode="&#x4e4;" horiz-adv-x="1490" d="M176 0v1419h195v-1050q66 109 161 248t202.5 283t217 280.5t205.5 238.5h158v-1419h-195v1108q-57 -66 -124.5 -152t-139.5 -183t-144.5 -201.5t-140 -206t-126 -195.5t-103.5 -170h-166zM550 1581q-47 0 -82.5 33.5t-35.5 86.5t35.5 87t82.5 34t83 -33.5t36 -87.5 q0 -53 -36 -86.5t-83 -33.5zM940 1581q-47 0 -83 33.5t-36 86.5t35.5 87t83.5 34q47 0 82.5 -33.5t35.5 -87.5q0 -53 -35.5 -86.5t-82.5 -33.5z" />
<glyph unicode="&#x4e5;" horiz-adv-x="1222" d="M1059 1065v-1065h-185v811q-61 -78 -134.5 -182.5t-147.5 -216t-141.5 -220t-116.5 -192.5h-170v1065h184v-766q53 88 121 193.5t140.5 209t145 198.5t136.5 165h168zM421 1262q-47 0 -82.5 33.5t-35.5 86.5t35.5 87t82.5 34t83 -33.5t36 -87.5q0 -53 -36 -86.5 t-83 -33.5zM811 1262q-47 0 -83 33.5t-36 86.5t35.5 87t83.5 34q47 0 82.5 -33.5t35.5 -87.5q0 -53 -35.5 -86.5t-82.5 -33.5z" />
<glyph unicode="&#x4e6;" horiz-adv-x="1593" d="M119 711q0 182 54 321t147.5 232.5t217.5 140.5t263 47q137 0 259 -47t214 -140.5t146.5 -232.5t54.5 -321t-54.5 -321.5t-146.5 -233t-214 -140.5t-259 -47q-139 0 -263 47t-217.5 140.5t-147.5 233t-54 321.5zM328 711q0 -129 32.5 -234.5t93 -179.5t147.5 -114 t196 -40t194.5 40t146 114t93.5 179.5t33 234.5t-33 234.5t-93.5 179t-146.5 113.5t-194 40q-109 0 -196 -40t-147.5 -113.5t-93 -179t-32.5 -234.5zM602 1581q-47 0 -82.5 33.5t-35.5 86.5t35.5 87t82.5 34t83 -33.5t36 -87.5q0 -53 -36 -86.5t-83 -33.5zM992 1581 q-47 0 -83 33.5t-36 86.5t35.5 87t83.5 34q47 0 82.5 -33.5t35.5 -87.5q0 -53 -35.5 -86.5t-82.5 -33.5z" />
<glyph unicode="&#x4e7;" horiz-adv-x="1208" d="M1104 532q0 -127 -37 -229t-103.5 -176t-158.5 -114t-201 -40t-201 40t-158.5 114t-103.5 176.5t-37 228.5q0 125 37 228.5t103.5 177.5t159 114t200.5 40q109 0 201 -40t158.5 -114t103.5 -177.5t37 -228.5zM905 532q0 180 -81 286t-220 106t-220 -105.5t-81 -286.5 q0 -180 81 -285.5t220 -105.5t220 105.5t81 285.5zM409 1262q-47 0 -82.5 33.5t-35.5 86.5t35.5 87t82.5 34t83 -33.5t36 -87.5q0 -53 -36 -86.5t-83 -33.5zM799 1262q-47 0 -83 33.5t-36 86.5t35.5 87t83.5 34q47 0 82.5 -33.5t35.5 -87.5q0 -53 -35.5 -86.5t-82.5 -33.5z " />
<glyph unicode="&#x4e8;" horiz-adv-x="1593" d="M119 711q0 182 54 321t147.5 232.5t217.5 140.5t263 47q137 0 259 -47t214 -140.5t146.5 -232.5t54.5 -321t-54.5 -321.5t-146.5 -233t-214 -140.5t-259 -47q-139 0 -263 47t-217.5 140.5t-147.5 233t-54 321.5zM797 143q100 0 182 35t141.5 99.5t95 155.5t44.5 206h-930 q18 -229 140 -362.5t327 -133.5zM797 1278q-205 0 -326 -129t-141 -356h930q-10 113 -46 201.5t-96.5 152t-141.5 97.5t-179 34z" />
<glyph unicode="&#x4e9;" horiz-adv-x="1208" d="M1104 532q0 -127 -37 -229t-103.5 -176t-158.5 -114t-201 -40t-201 40t-158.5 114t-103.5 176.5t-37 228.5q0 125 37 228.5t103.5 177.5t159 114t200.5 40q109 0 201 -40t158.5 -114t103.5 -177.5t37 -228.5zM604 141q129 0 208 90.5t91 245.5h-598q12 -156 91 -246 t208 -90zM604 924q-123 0 -201.5 -83t-95.5 -227h594q-18 143 -96 226.5t-201 83.5z" />
<glyph unicode="&#x4ea;" horiz-adv-x="1593" d="M119 711q0 182 54 321t147.5 232.5t217.5 140.5t263 47q137 0 259 -47t214 -140.5t146.5 -232.5t54.5 -321t-54.5 -321.5t-146.5 -233t-214 -140.5t-259 -47q-139 0 -263 47t-217.5 140.5t-147.5 233t-54 321.5zM797 143q100 0 182 35t141.5 99.5t95 155.5t44.5 206h-930 q18 -229 140 -362.5t327 -133.5zM797 1278q-205 0 -326 -129t-141 -356h930q-10 113 -46 201.5t-96.5 152t-141.5 97.5t-179 34zM602 1581q-47 0 -82.5 33.5t-35.5 86.5t35.5 87t82.5 34t83 -33.5t36 -87.5q0 -53 -36 -86.5t-83 -33.5zM992 1581q-47 0 -83 33.5t-36 86.5 t35.5 87t83.5 34q47 0 82.5 -33.5t35.5 -87.5q0 -53 -35.5 -86.5t-82.5 -33.5z" />
<glyph unicode="&#x4eb;" horiz-adv-x="1208" d="M1104 532q0 -127 -37 -229t-103.5 -176t-158.5 -114t-201 -40t-201 40t-158.5 114t-103.5 176.5t-37 228.5q0 125 37 228.5t103.5 177.5t159 114t200.5 40q109 0 201 -40t158.5 -114t103.5 -177.5t37 -228.5zM604 141q129 0 208 90.5t91 245.5h-598q12 -156 91 -246 t208 -90zM604 924q-123 0 -201.5 -83t-95.5 -227h594q-18 143 -96 226.5t-201 83.5zM407 1262q-47 0 -82.5 33.5t-35.5 86.5t35.5 87t82.5 34t83 -33.5t36 -87.5q0 -53 -36 -86.5t-83 -33.5zM797 1262q-47 0 -83 33.5t-36 86.5t35.5 87t83.5 34q47 0 82.5 -33.5t35.5 -87.5 q0 -53 -35.5 -86.5t-82.5 -33.5z" />
<glyph unicode="&#x4ec;" horiz-adv-x="1269" d="M1151 711q0 -174 -48 -312.5t-136 -233.5t-210 -145.5t-272 -50.5q-86 0 -159.5 10.5t-130 24.5t-93 29.5t-51.5 25.5l51 164q45 -23 134.5 -51.5t224.5 -28.5q111 0 195.5 36t145 101.5t94.5 156.5t42 204h-627v168h623q-10 106 -44 192t-93.5 147.5t-143.5 95.5 t-192 34q-135 0 -222 -27.5t-133 -50.5l-51 158q14 10 50 26.5t91.5 32t128 25.5t158.5 10q150 0 273 -50t211 -145.5t136 -232.5t48 -313zM317 1581q-47 0 -82.5 33.5t-35.5 86.5t35.5 87t82.5 34t83 -33.5t36 -87.5q0 -53 -36 -86.5t-83 -33.5zM707 1581q-47 0 -83 33.5 t-36 86.5t35.5 87t83.5 34q47 0 82.5 -33.5t35.5 -87.5q0 -53 -35.5 -86.5t-82.5 -33.5z" />
<glyph unicode="&#x4ed;" horiz-adv-x="1019" d="M915 537q0 -123 -31.5 -225.5t-97 -177.5t-164 -117t-229.5 -42q-115 0 -203 18.5t-120 37.5l26 162q18 -10 49 -18.5t69 -15.5t79 -11.5t82 -4.5q166 0 249 87t95 241h-434v154h430q-18 137 -97 218t-233 81q-84 0 -147.5 -13.5t-98.5 -29.5l-41 153q20 10 54 20.5 t74 18.5t83 13.5t84 5.5q129 0 226.5 -43t163 -119t99 -176t33.5 -217zM231 1262q-47 0 -82.5 33.5t-35.5 86.5t35.5 87t82.5 34t83 -33.5t36 -87.5q0 -53 -36 -86.5t-83 -33.5zM621 1262q-47 0 -83 33.5t-36 86.5t35.5 87t83.5 34q47 0 82.5 -33.5t35.5 -87.5 q0 -53 -35.5 -86.5t-82.5 -33.5z" />
<glyph unicode="&#x4ee;" horiz-adv-x="1202" d="M807 434q-41 -94 -85 -177t-104.5 -144.5t-145.5 -96t-210 -34.5q-25 0 -51.5 3t-51 8t-43 11t-26.5 12l35 168q27 -10 64.5 -20t78.5 -10q61 0 107.5 15t83.5 43t65.5 67.5t55.5 89.5q-90 145 -170 289.5t-147.5 279.5t-123 257t-98.5 224h225q68 -178 173.5 -397 t234.5 -459q82 186 156.5 410.5t140.5 445.5h215q-47 -147 -94.5 -277t-94.5 -250t-94 -233.5t-96 -224.5zM336 1775h582v-147h-582v147z" />
<glyph unicode="&#x4ef;" horiz-adv-x="1017" d="M39 -199q23 -10 58.5 -19t70.5 -9q113 0 176.5 50t114.5 163q-129 246 -241 521t-185 558h205q23 -92 54.5 -198.5t70 -219t84 -225.5t94.5 -217q78 215 135 426t108 434h197q-74 -301 -164 -578.5t-194 -519.5q-41 -92 -85 -158.5t-97.5 -109.5t-120 -63.5t-150.5 -20.5 q-23 0 -47.5 3t-48 8t-43 11.5t-27.5 10.5zM244 1456h582v-147h-582v147z" />
<glyph unicode="&#x4f0;" horiz-adv-x="1202" d="M807 434q-41 -94 -85 -177t-104.5 -144.5t-145.5 -96t-210 -34.5q-25 0 -51.5 3t-51 8t-43 11t-26.5 12l35 168q27 -10 64.5 -20t78.5 -10q61 0 107.5 15t83.5 43t65.5 67.5t55.5 89.5q-90 145 -170 289.5t-147.5 279.5t-123 257t-98.5 224h225q68 -178 173.5 -397 t234.5 -459q82 186 156.5 410.5t140.5 445.5h215q-47 -147 -94.5 -277t-94.5 -250t-94 -233.5t-96 -224.5zM432 1581q-47 0 -82.5 33.5t-35.5 86.5t35.5 87t82.5 34t83 -33.5t36 -87.5q0 -53 -36 -86.5t-83 -33.5zM822 1581q-47 0 -83 33.5t-36 86.5t35.5 87t83.5 34 q47 0 82.5 -33.5t35.5 -87.5q0 -53 -35.5 -86.5t-82.5 -33.5z" />
<glyph unicode="&#x4f1;" horiz-adv-x="1017" d="M39 -199q23 -10 58.5 -19t70.5 -9q113 0 176.5 50t114.5 163q-129 246 -241 521t-185 558h205q23 -92 54.5 -198.5t70 -219t84 -225.5t94.5 -217q78 215 135 426t108 434h197q-74 -301 -164 -578.5t-194 -519.5q-41 -92 -85 -158.5t-97.5 -109.5t-120 -63.5t-150.5 -20.5 q-23 0 -47.5 3t-48 8t-43 11.5t-27.5 10.5zM340 1262q-47 0 -82.5 33.5t-35.5 86.5t35.5 87t82.5 34t83 -33.5t36 -87.5q0 -53 -36 -86.5t-83 -33.5zM730 1262q-47 0 -83 33.5t-36 86.5t35.5 87t83.5 34q47 0 82.5 -33.5t35.5 -87.5q0 -53 -35.5 -86.5t-82.5 -33.5z" />
<glyph unicode="&#x4f2;" horiz-adv-x="1202" d="M807 434q-41 -94 -85 -177t-104.5 -144.5t-145.5 -96t-210 -34.5q-25 0 -51.5 3t-51 8t-43 11t-26.5 12l35 168q27 -10 64.5 -20t78.5 -10q61 0 107.5 15t83.5 43t65.5 67.5t55.5 89.5q-90 145 -170 289.5t-147.5 279.5t-123 257t-98.5 224h225q68 -178 173.5 -397 t234.5 -459q82 186 156.5 410.5t140.5 445.5h215q-47 -147 -94.5 -277t-94.5 -250t-94 -233.5t-96 -224.5zM719 1794l-252 -287l-98 74l235 327zM1057 1794l-252 -287l-98 74l235 327z" />
<glyph unicode="&#x4f3;" horiz-adv-x="1017" d="M39 -199q23 -10 58.5 -19t70.5 -9q113 0 176.5 50t114.5 163q-129 246 -241 521t-185 558h205q23 -92 54.5 -198.5t70 -219t84 -225.5t94.5 -217q78 215 135 426t108 434h197q-74 -301 -164 -578.5t-194 -519.5q-41 -92 -85 -158.5t-97.5 -109.5t-120 -63.5t-150.5 -20.5 q-23 0 -47.5 3t-48 8t-43 11.5t-27.5 10.5zM627 1475l-252 -287l-98 74l235 327zM965 1475l-252 -287l-98 74l235 327z" />
<glyph unicode="&#x4f4;" horiz-adv-x="1292" d="M315 1010q0 -86 15.5 -150.5t53.5 -106.5t102.5 -62.5t162.5 -20.5q39 0 79 3t77 7t65.5 10l47.5 10v719h198v-1419h-198v528q-39 -10 -120 -20t-173 -10q-156 0 -254.5 35.5t-154.5 102t-76.5 162t-20.5 212.5v409h196v-409zM436 1581q-47 0 -82.5 33.5t-35.5 86.5 t35.5 87t82.5 34t83 -33.5t36 -87.5q0 -53 -36 -86.5t-83 -33.5zM826 1581q-47 0 -83 33.5t-36 86.5t35.5 87t83.5 34q47 0 82.5 -33.5t35.5 -87.5q0 -53 -35.5 -86.5t-82.5 -33.5z" />
<glyph unicode="&#x4f5;" horiz-adv-x="1091" d="M285 1065v-313q0 -121 61.5 -169t167.5 -48q78 0 130 8t93 18v504h191v-1065h-191v414q-16 -4 -42.5 -10.5t-60.5 -11.5t-71 -9t-71 -4q-88 0 -161 18.5t-125 61.5t-82 113.5t-30 177.5v315h191zM315 1262q-47 0 -82.5 33.5t-35.5 86.5t35.5 87t82.5 34t83 -33.5 t36 -87.5q0 -53 -36 -86.5t-83 -33.5zM705 1262q-47 0 -83 33.5t-36 86.5t35.5 87t83.5 34q47 0 82.5 -33.5t35.5 -87.5q0 -53 -35.5 -86.5t-82.5 -33.5z" />
<glyph unicode="&#x4f6;" horiz-adv-x="1042" d="M1010 1419v-172h-635v-1077h178v-549h-188v379h-189v1419h834z" />
<glyph unicode="&#x4f7;" horiz-adv-x="856" d="M823 905h-469v-747h144v-455h-181v297h-153v1065h659v-160z" />
<glyph unicode="&#x4f8;" horiz-adv-x="1753" d="M954 444q0 86 -30.5 143.5t-88 90.5t-136 46t-173.5 13h-74.5t-76.5 -4v-567q70 -6 104.5 -6h81.5q76 0 147.5 12t126 45t87 87t32.5 140zM1163 444q0 -115 -43 -200.5t-122.5 -143t-194.5 -86t-258 -28.5q-86 0 -184.5 7t-184.5 27v1399h199v-516q37 4 79 5t78 1 q631 0 631 -465zM1378 1419h199v-1419h-199v1419zM682 1581q-47 0 -82.5 33.5t-35.5 86.5t35.5 87t82.5 34t83 -33.5t36 -87.5q0 -53 -36 -86.5t-83 -33.5zM1072 1581q-47 0 -83 33.5t-36 86.5t35.5 87t83.5 34q47 0 82.5 -33.5t35.5 -87.5q0 -53 -35.5 -86.5t-82.5 -33.5z " />
<glyph unicode="&#x4f9;" horiz-adv-x="1552" d="M555 526q-55 0 -107.5 -3t-93.5 -13v-367q12 -2 36 -4t51.5 -3t56 -2t51.5 -1q125 0 192.5 47t67.5 152q0 51 -21.5 88t-57.5 60.5t-81 34.5t-94 11zM164 1065h190v-408q35 8 101.5 16.5t128.5 8.5q84 0 159.5 -19.5t133 -61.5t91 -108.5t33.5 -158.5q0 -96 -32.5 -164 t-92 -111t-143.5 -62.5t-184 -19.5q-96 0 -194.5 11.5t-190.5 34.5v1042zM1389 0h-191v1065h191v-1065zM581 1262q-47 0 -82.5 33.5t-35.5 86.5t35.5 87t82.5 34t83 -33.5t36 -87.5q0 -53 -36 -86.5t-83 -33.5zM971 1262q-47 0 -83 33.5t-36 86.5t35.5 87t83.5 34 q47 0 82.5 -33.5t35.5 -87.5q0 -53 -35.5 -86.5t-82.5 -33.5z" />
<glyph unicode="&#x2000;" horiz-adv-x="954" />
<glyph unicode="&#x2001;" horiz-adv-x="1908" />
<glyph unicode="&#x2002;" horiz-adv-x="954" />
<glyph unicode="&#x2003;" horiz-adv-x="1908" />
<glyph unicode="&#x2004;" horiz-adv-x="636" />
<glyph unicode="&#x2005;" horiz-adv-x="477" />
<glyph unicode="&#x2006;" horiz-adv-x="318" />
<glyph unicode="&#x2007;" horiz-adv-x="318" />
<glyph unicode="&#x2008;" horiz-adv-x="238" />
<glyph unicode="&#x2009;" horiz-adv-x="381" />
<glyph unicode="&#x200a;" horiz-adv-x="106" />
<glyph unicode="&#x2010;" horiz-adv-x="612" d="M53 702h506v-178h-506v178z" />
<glyph unicode="&#x2011;" horiz-adv-x="612" d="M53 702h506v-178h-506v178z" />
<glyph unicode="&#x2012;" horiz-adv-x="612" d="M53 702h506v-178h-506v178z" />
<glyph unicode="&#x2013;" horiz-adv-x="1015" d="M-4 694h1024v-162h-1024v162z" />
<glyph unicode="&#x2014;" horiz-adv-x="2039" d="M-4 694h2048v-162h-2048v162z" />
<glyph unicode="&#x2018;" horiz-adv-x="481" d="M123 1065v44t2 42q8 106 47 210.5t94 194.5l148 -47q-43 -90 -64.5 -182t-21.5 -172q0 -20 1 -44t3 -46h-209z" />
<glyph unicode="&#x2019;" horiz-adv-x="481" d="M358 1536v-44.5t-2 -41.5q-8 -106 -47 -209.5t-94 -196.5l-147 48q43 92 64.5 183t21.5 171q0 20 -1 43.5t-3 46.5h208z" />
<glyph unicode="&#x201a;" horiz-adv-x="481" d="M358 233v-44t-2 -42q-8 -106 -47 -210.5t-94 -194.5l-147 47q43 90 64.5 182t21.5 172q0 20 -1 44t-3 46h208z" />
<glyph unicode="&#x201c;" horiz-adv-x="854" d="M123 1065v44t2 42q8 106 47 210.5t94 194.5l148 -47q-43 -90 -64.5 -182t-21.5 -172q0 -20 1 -44t3 -46h-209zM496 1065v44t2 42q8 106 47 210.5t94 194.5l148 -47q-43 -90 -64.5 -182t-21.5 -172q0 -20 1 -44t3 -46h-209z" />
<glyph unicode="&#x201d;" horiz-adv-x="854" d="M358 1536v-44.5t-2 -41.5q-8 -106 -47 -209.5t-94 -196.5l-147 48q43 92 64.5 183t21.5 171q0 20 -1 43.5t-3 46.5h208zM731 1536v-44.5t-2 -41.5q-8 -106 -47 -209.5t-94 -196.5l-147 48q43 92 64.5 183t21.5 171q0 20 -1 43.5t-3 46.5h208z" />
<glyph unicode="&#x201e;" horiz-adv-x="854" d="M358 233v-44t-2 -42q-8 -106 -47 -210.5t-94 -194.5l-147 47q43 90 64.5 182t21.5 172q0 20 -1 44t-3 46h208zM731 233v-44t-2 -42q-8 -106 -47 -210.5t-94 -194.5l-147 47q43 90 64.5 182t21.5 172q0 20 -1 44t-3 46h208z" />
<glyph unicode="&#x2022;" horiz-adv-x="737" d="M631 723q0 -53 -18.5 -100.5t-52.5 -82t-82 -56t-109 -21.5t-109.5 21.5t-82.5 56t-52.5 82t-18.5 100.5q0 51 18.5 99t52.5 83t82 56.5t110 21.5q61 0 109 -21.5t82 -56.5t52.5 -83t18.5 -99z" />
<glyph unicode="&#x2026;" horiz-adv-x="2039" d="M475 111q0 -55 -37 -96.5t-100 -41.5t-100 41t-37 97q0 55 36.5 96t100.5 41q63 0 100 -41t37 -96zM1157 111q0 -55 -37 -96.5t-100 -41.5t-100 41t-37 97q0 55 36.5 96t100.5 41q63 0 100 -41t37 -96zM1839 111q0 -55 -37 -96.5t-100 -41.5t-100 41t-37 97q0 55 36.5 96 t100.5 41q63 0 100 -41t37 -96z" />
<glyph unicode="&#x202f;" horiz-adv-x="381" />
<glyph unicode="&#x2039;" horiz-adv-x="595" d="M61 582l320 452l133 -71l-227 -381l227 -381l-133 -72z" />
<glyph unicode="&#x203a;" horiz-adv-x="595" d="M215 129l-133 72l227 381l-227 381l133 71l320 -452z" />
<glyph unicode="&#x205f;" horiz-adv-x="477" />
<glyph unicode="&#x20ac;" d="M281 967q47 240 186 359.5t356 119.5q90 0 149.5 -11.5t119.5 -29.5l-41 -164q-49 18 -107.5 29.5t-120.5 11.5q-78 0 -136 -22.5t-100 -63.5t-68.5 -99.5t-41.5 -129.5h477l-28 -148h-469q-2 -27 -2 -53.5v-54.5v-51.5t2 -47.5h428l-29 -147h-383q35 -182 126 -254 t228 -72q86 0 148.5 16.5t111.5 39.5l41 -162q-35 -18 -120.5 -39t-190.5 -21q-240 0 -371 130t-170 362h-184v147h168q-2 23 -2 47.5v51.5v55.5t2 52.5h-168v148h189z" />
<glyph unicode="&#x2122;" horiz-adv-x="1554" d="M618 1419v-125h-215v-557h-141v557h-215v125h571zM1397 1419q16 -104 28.5 -267t28.5 -415h-143q-2 51 -4 109.5t-5.5 117t-7.5 116t-8 106.5q-23 -39 -49.5 -91.5t-52 -103.5t-49 -96t-35.5 -72h-101q-12 27 -35.5 72t-49 96t-53 103.5t-48.5 91.5q-4 -49 -8 -106.5 t-7 -116t-5 -117t-5 -109.5h-141q16 252 28.5 415t29.5 267h135q16 -35 40.5 -84t53.5 -106.5t58.5 -116.5t58.5 -115q27 55 57.5 114.5t59 117t53 106.5t41.5 84h135z" />
<glyph unicode="&#x25fc;" horiz-adv-x="1064" d="M0 1065h1065v-1065h-1065v1065z" />
<glyph horiz-adv-x="770" d="M393 1237q-129 0 -210 65.5t-97 182.5l145 39q16 -66 55.5 -107t106.5 -41q68 0 107 41t55 107l143 -39q-16 -117 -96 -182.5t-209 -65.5z" />
</font>
</defs>
</svg>
